# Blender v2.91.2 OBJ File: 'landscape_v2.blend'
# www.blender.org
mtllib path.mtl
o road-straight-low_Cube.131
v 4.054455 -1.000000 3.924115
v -3.945541 -1.000000 3.924115
v -3.945540 -1.000000 -4.075882
v 4.054457 -1.000000 -4.075880
v 4.054453 1.000000 3.924118
v -3.945544 1.000000 3.924112
v -3.945539 1.000000 -4.075883
v 4.054455 1.000000 -4.075881
v 4.054453 1.000000 2.924118
v 4.054455 1.000000 -3.075881
v -3.945543 1.000000 2.924113
v -3.945540 1.000000 -3.075883
v -3.945540 1.100000 -3.075883
v -3.945540 1.100000 -2.075884
v -3.945543 1.100000 1.924114
v -3.945543 1.100000 2.924113
v 4.054455 1.100000 -3.075881
v 4.054455 1.100000 -2.075881
v 4.054453 1.100000 1.924118
v 4.054453 1.100000 2.924118
v 4.054453 1.000000 1.924118
v 4.054455 1.000000 -2.075881
v -3.945543 1.000000 1.924114
v -3.945540 1.000000 -2.075884
v 4.054454 0.000000 3.924116
v -3.945542 0.000000 3.924114
v -3.945540 0.000000 -4.075882
v 4.054456 0.000000 -4.075880
v 4.054455 -1.000000 2.924116
v 4.054455 -1.000000 1.924117
v 4.054457 -1.000000 -2.075881
v 4.054457 -1.000000 -3.075880
v 4.054454 0.000000 2.924117
v 4.054454 0.000000 1.924117
v 4.054456 0.000000 -2.075881
v 4.054456 0.000000 -3.075880
v -3.945541 -1.000000 2.924115
v -3.945541 -1.000000 1.924116
v -3.945540 -1.000000 -2.075883
v -3.945540 -1.000000 -3.075882
v -3.945542 0.000000 2.924114
v -3.945542 0.000000 1.924114
v -3.945540 0.000000 -2.075883
v -3.945540 0.000000 -3.075883
vt 0.702135 0.986207
vt 0.755286 0.543278
vt 0.755286 0.986207
vt 0.968730 0.030918
vt 0.962355 0.498429
vt 0.962355 0.030918
vt 0.955979 0.030918
vt 0.962355 0.498429
vt 0.955980 0.498429
vt 0.167601 0.007235
vt 0.230981 0.070614
vt 0.167602 0.070614
vt 0.104222 0.007235
vt 0.040843 0.514268
vt 0.040843 0.007235
vt 0.949604 0.030918
vt 0.943229 0.498429
vt 0.943229 0.030918
vt 0.815726 0.153640
vt 0.879478 0.159484
vt 0.815726 0.159484
vt 0.294360 0.450889
vt 0.230981 0.514268
vt 0.230981 0.450889
vt 0.167601 0.514268
vt 0.104222 0.007235
vt 0.955979 0.030918
vt 0.949604 0.498429
vt 0.949604 0.030918
vt 0.943229 0.036762
vt 0.879478 0.030918
vt 0.943229 0.030918
vt 0.815726 0.030918
vt 0.751975 0.498429
vt 0.751975 0.030918
vt 0.815726 0.036762
vt 0.879478 0.030918
vt 0.879478 0.036762
vt 0.751975 0.498429
vt 0.688223 0.030918
vt 0.751975 0.030918
vt 0.808438 0.543278
vt 0.861589 0.986207
vt 0.808438 0.986207
vt 0.861589 0.543278
vt 0.914741 0.986207
vt 0.861589 0.986207
vt 0.808438 0.986207
vt 0.755286 0.543278
vt 0.808438 0.543278
vt 0.879478 0.223767
vt 0.815726 0.217923
vt 0.879478 0.217923
vt 0.167601 0.514268
vt 0.230981 0.450889
vt 0.230981 0.514268
vt 0.167602 0.450889
vt 0.230981 0.387510
vt 0.294360 0.007235
vt 0.230981 0.070614
vt 0.230981 0.007235
vt 0.294360 0.070614
vt 0.230981 0.133993
vt 0.967892 0.709376
vt 0.914741 0.764742
vt 0.914741 0.709376
vt 0.967892 0.654010
vt 0.914741 0.598644
vt 0.967892 0.598644
vt 0.914741 0.543278
vt 0.967892 0.598644
vt 0.914741 0.598644
vt 0.879478 0.095201
vt 0.967892 0.654010
vt 0.914741 0.709376
vt 0.914741 0.654010
vt 0.879478 0.153640
vt 0.815726 0.095201
vt 0.879478 0.095201
vt 0.351106 0.454821
vt 0.585976 0.102517
vt 0.585976 0.454821
vt 0.167602 0.387510
vt 0.230981 0.133993
vt 0.167602 0.133993
vt 0.294360 0.133993
vt 0.230981 0.387510
vt 0.294360 0.387510
vt 0.585976 0.278669
vt 0.644693 0.102517
vt 0.644693 0.278669
vt 0.879478 0.095201
vt 0.879478 0.036762
vt 0.587235 0.455824
vt 0.645952 0.279672
vt 0.645952 0.455824
vt 0.815726 0.159484
vt 0.879478 0.159484
vt 0.702135 0.543278
vt 0.968730 0.498429
vt 0.962355 0.030918
vt 0.230981 0.007235
vt 0.104222 0.514268
vt 0.949604 0.498429
vt 0.294360 0.514268
vt 0.104222 0.514268
vt 0.955979 0.498429
vt 0.815726 0.498429
vt 0.815726 0.030918
vt 0.688223 0.498429
vt 0.861589 0.543278
vt 0.914741 0.543278
vt 0.755286 0.986207
vt 0.815726 0.223767
vt 0.967892 0.764742
vt 0.914741 0.654010
vt 0.967892 0.543278
vt 0.815726 0.095201
vt 0.967892 0.709376
vt 0.351107 0.102517
vt 0.585976 0.102517
vt 0.943229 0.095201
vt 0.587235 0.279672
vn -0.0000 -0.0000 1.0000
vn 0.0000 0.0000 -1.0000
vn 1.0000 0.0000 0.0000
vn -1.0000 0.0000 -0.0000
vn 0.0000 1.0000 0.0000
usemtl basecolors
s off
f 5/1/1 26/2/1 25/3/1
f 20/4/1 11/5/1 9/6/1
f 17/7/2 12/8/2 13/9/2
f 4/10/3 36/11/3 32/12/3
f 2/13/1 25/14/1 26/15/1
f 24/16/1 18/17/1 14/18/1
f 23/19/4 16/20/4 15/21/4
f 44/22/4 3/23/4 40/24/4
f 3/25/2 28/26/2 4/10/2
f 21/27/2 15/28/2 19/29/2
f 22/30/3 17/31/3 18/32/3
f 14/33/5 17/34/5 13/35/5
f 21/36/3 20/37/3 9/38/3
f 20/39/5 15/40/5 16/41/5
f 8/42/2 27/43/2 7/44/2
f 7/45/5 10/46/5 8/47/5
f 5/48/5 11/49/5 6/50/5
f 14/51/4 12/52/4 24/53/4
f 1/54/3 33/55/3 25/56/3
f 29/57/3 34/58/3 33/55/3
f 26/59/4 37/60/4 2/61/4
f 41/62/4 38/63/4 37/60/4
f 12/64/4 27/65/4 44/66/4
f 10/67/3 28/68/3 8/69/3
f 25/70/3 9/71/3 5/72/3
f 33/73/3 21/36/3 9/38/3
f 6/74/4 41/75/4 26/76/4
f 11/77/4 42/78/4 41/79/4
f 22/80/5 23/81/5 21/82/5
f 30/83/3 35/84/3 34/58/3
f 32/12/3 35/84/3 31/85/3
f 42/86/4 39/87/4 38/63/4
f 43/88/4 40/24/4 39/87/4
f 34/89/3 22/90/3 21/91/3
f 22/30/3 36/92/3 10/93/3
f 23/94/4 43/95/4 42/96/4
f 24/53/4 44/97/4 43/98/4
f 5/1/1 6/99/1 26/2/1
f 20/4/1 16/100/1 11/5/1
f 17/7/2 10/101/2 12/8/2
f 4/10/3 28/102/3 36/11/3
f 2/13/1 1/103/1 25/14/1
f 24/16/1 22/104/1 18/17/1
f 23/19/4 11/77/4 16/20/4
f 44/22/4 27/105/4 3/23/4
f 3/25/2 27/106/2 28/26/2
f 21/27/2 23/107/2 15/28/2
f 22/30/3 10/93/3 17/31/3
f 14/33/5 18/108/5 17/34/5
f 21/36/3 19/109/3 20/37/3
f 20/39/5 19/110/5 15/40/5
f 8/42/2 28/111/2 27/43/2
f 7/45/5 12/112/5 10/46/5
f 5/48/5 9/113/5 11/49/5
f 14/51/4 13/114/4 12/52/4
f 1/54/3 29/57/3 33/55/3
f 29/57/3 30/83/3 34/58/3
f 26/59/4 41/62/4 37/60/4
f 41/62/4 42/86/4 38/63/4
f 12/64/4 7/115/4 27/65/4
f 10/67/3 36/116/3 28/68/3
f 25/70/3 33/117/3 9/71/3
f 33/73/3 34/118/3 21/36/3
f 6/74/4 11/119/4 41/75/4
f 11/77/4 23/19/4 42/78/4
f 22/80/5 24/120/5 23/81/5
f 30/83/3 31/85/3 35/84/3
f 32/12/3 36/11/3 35/84/3
f 42/86/4 43/88/4 39/87/4
f 43/88/4 44/22/4 40/24/4
f 34/89/3 35/121/3 22/90/3
f 22/30/3 35/122/3 36/92/3
f 23/94/4 24/123/4 43/95/4
f 24/53/4 12/52/4 44/97/4
