# Blender v2.91.2 OBJ File: 'Stick.blend'
# www.blender.org
mtllib stick.mtl
o Cube
v 0.001384 -0.314676 -0.017424
v 0.001384 -0.314676 0.030490
v -0.046530 -0.314676 0.030490
v -0.046530 -0.314676 -0.017424
v -0.010853 0.777153 -0.009124
v -0.011732 0.770192 0.022252
v -0.038193 0.783259 0.022252
v -0.042466 0.792998 -0.005792
v 0.001384 -0.177270 -0.017424
v -0.010311 -0.039865 -0.017424
v 0.001384 0.137185 -0.017424
v 0.021927 0.195301 -0.017424
v 0.025009 0.373939 -0.027100
v 0.017758 0.509498 -0.024192
v -0.003663 0.647161 -0.012377
v 0.001384 -0.177270 0.030490
v -0.010311 -0.039865 0.030490
v 0.001384 0.137185 0.030490
v 0.021927 0.195301 0.030490
v 0.025009 0.373939 0.020814
v 0.017758 0.509498 0.023722
v -0.003663 0.647161 0.025443
v -0.046530 -0.177270 0.030490
v -0.058225 -0.039865 0.030490
v -0.046530 0.097540 0.030490
v -0.025987 0.234946 0.030490
v -0.025206 0.416949 0.016412
v -0.027855 0.466488 0.018751
v -0.041483 0.647161 0.025443
v -0.046530 -0.177270 -0.017424
v -0.058225 -0.039865 -0.017424
v -0.046530 0.097540 -0.017424
v -0.025987 0.234946 -0.017424
v -0.025206 0.416949 -0.022128
v -0.026909 0.466026 -0.028405
v -0.041483 0.647161 -0.012377
v -0.163347 0.503654 0.005739
v -0.158710 0.532275 0.020732
v -0.163347 0.503654 -0.010077
v -0.149420 0.538415 -0.031465
v 0.155511 0.239919 0.003133
v 0.152788 0.273264 -0.001593
v 0.154878 0.241501 0.014660
v 0.152155 0.274846 0.009934
v -0.020313 -0.314676 -0.026464
v -0.020313 -0.314676 0.040947
v -0.016298 0.784328 -0.012664
v -0.016165 0.776109 0.029356
v -0.020789 0.647161 -0.019363
v -0.002897 0.490022 -0.033181
v 0.002270 0.393416 -0.036910
v 0.000230 0.213253 -0.026464
v -0.020313 0.119233 -0.026464
v -0.032008 -0.039865 -0.026464
v -0.020313 -0.177270 -0.026464
v -0.020313 -0.177270 0.040947
v -0.032008 -0.039865 0.040947
v -0.020313 0.119233 0.040947
v 0.000230 0.213253 0.040947
v 0.002270 0.393416 0.024528
v -0.002897 0.490022 0.028257
v -0.020789 0.647161 0.033846
v 0.103485 0.857678 -0.033383
v 0.102569 0.855215 -0.030730
v 0.103475 0.859861 -0.032235
v 0.102733 0.856427 -0.029172
v -0.006251 0.786744 0.004071
v -0.004956 0.787344 0.005298
v -0.008130 0.790100 -0.000208
v -0.007724 0.791902 -0.000182
v 0.042620 0.795855 0.003518
v 0.042904 0.831806 -0.031850
v 0.044909 0.800749 0.010419
v 0.043139 0.836287 -0.030058
v 0.016658 0.782711 0.017144
v 0.012364 0.813249 -0.017954
v 0.013598 0.778535 0.010840
v 0.011752 0.808059 -0.019271
v 0.075698 0.823045 -0.010617
v 0.072097 0.847060 -0.036893
v 0.076877 0.827578 -0.005227
v 0.071652 0.851604 -0.035116
vt 0.715219 0.570486
vt 0.588619 0.570486
vt 0.608256 0.521249
vt 0.698241 0.521249
vt 0.972916 0.539275
vt 0.933769 0.539275
vt 0.934361 0.514520
vt 0.962765 0.504224
vt 0.768454 0.119401
vt 0.773214 0.011205
vt 0.816596 0.016974
vt 0.820670 0.119360
vt 0.138958 0.875649
vt 0.147228 0.992460
vt 0.126535 0.999947
vt 0.118687 0.876492
vt 0.320518 0.164795
vt 0.312635 0.287175
vt 0.286745 0.294874
vt 0.286487 0.163403
vt 0.528804 0.120179
vt 0.528807 -0.003843
vt 0.553900 -0.003830
vt 0.553839 0.120499
vt 0.504531 0.987353
vt 0.511240 0.863378
vt 0.530954 0.864285
vt 0.528661 0.996030
vt 0.499771 0.721059
vt 0.526103 0.701227
vt 0.497342 0.635181
vt 0.524840 0.656586
vt 0.502495 0.473243
vt 0.527518 0.493389
vt 0.522076 0.388143
vt 0.547633 0.369064
vt 0.535564 0.244395
vt 0.560641 0.245021
vt 0.247943 0.000097
vt 0.257486 0.123470
vt 0.214465 0.126798
vt 0.204922 0.003425
vt 0.267064 0.247289
vt 0.224043 0.250617
vt 0.276642 0.371109
vt 0.233621 0.374437
vt 0.286292 0.495853
vt 0.243271 0.499181
vt 0.286292 0.660250
vt 0.251688 0.662927
vt 0.122223 0.666416
vt 0.122329 0.711708
vt 0.000053 0.792712
vt 0.000070 0.751838
vt 0.321165 0.001516
vt 0.286487 0.000097
vt 0.093862 0.001300
vt 0.100977 0.125793
vt 0.075409 0.127270
vt 0.068279 0.002764
vt 0.098416 0.250975
vt 0.072817 0.252441
vt 0.116311 0.394849
vt 0.089672 0.376599
vt 0.137609 0.479102
vt 0.113545 0.499994
vt 0.147269 0.643300
vt 0.147426 0.732238
vt 0.507542 -0.003843
vt 0.507670 0.119939
vt 0.464529 0.121276
vt 0.463616 -0.003667
vt 0.514321 0.243861
vt 0.470953 0.246093
vt 0.892818 0.228747
vt 0.893529 0.376247
vt 0.827376 0.376261
vt 0.826666 0.228761
vt 0.158859 0.462331
vt 0.139183 0.409887
vt 0.281421 0.501630
vt 0.280031 0.532302
vt 0.760513 0.495484
vt 0.746737 0.346729
vt 0.812889 0.346678
vt 0.826666 0.495433
vt 0.751017 0.233899
vt 0.817170 0.233848
vt 0.335600 0.170275
vt 0.335600 0.210638
vt 0.321360 0.210333
vt 0.321360 0.169969
vt 0.597964 -0.003843
vt 0.632559 -0.000437
vt 0.608568 0.145026
vt 0.594371 0.143629
vt 0.560768 0.021123
vt 0.560768 0.166107
vt 0.139490 0.742381
vt 0.007095 0.805300
vt 0.454096 0.324758
vt 0.423675 0.324072
vt 0.423912 0.313581
vt 0.454332 0.314267
vt 0.560768 0.209452
vt 0.560768 0.166234
vt 0.698413 0.184776
vt 0.698176 0.195284
vt 0.948910 0.504224
vt 0.882701 0.504224
vt 0.908990 0.376261
vt 0.924886 0.376794
vt 0.500390 0.403767
vt 0.481764 0.456239
vt 0.362416 0.526190
vt 0.359439 0.495815
vt 0.167725 0.748840
vt 0.156229 0.874898
vt 0.167664 0.624291
vt 0.120248 0.249726
vt 0.122803 0.124557
vt 0.115686 0.000053
vt 0.475775 0.617466
vt 0.479520 0.738358
vt 0.494530 0.863402
vt 0.498690 0.980903
vt 0.154749 0.986891
vt 0.804015 0.900422
vt 0.806283 0.885483
vt 0.894691 0.896243
vt 0.896391 0.900422
vt 0.698241 0.611233
vt 0.608256 0.611234
vt 0.899518 0.892902
vt 0.904895 0.893514
vt 0.834502 0.864650
vt 0.905692 0.839859
vt 0.931564 0.905119
vt 0.923697 0.905138
vt 0.863994 0.909576
vt 0.901107 0.822020
vt 0.917329 0.889551
vt 0.916472 0.900969
vt 0.864374 0.852569
vt 0.872542 0.848292
vt 0.631698 0.908856
vt 0.639603 0.914829
vt 0.621757 0.919782
vt 0.621546 0.918448
vt 0.826666 0.495484
vt 0.826666 0.531137
vt 0.814079 0.507112
vt 0.816468 0.500910
vt 0.779833 0.001540
vt 0.787776 0.001353
vt 0.826666 0.012069
vt 0.789047 0.000000
vt 0.771395 0.767921
vt 0.780333 0.764690
vt 0.832803 0.809399
vt 0.824966 0.812594
vt 0.765715 0.815503
vt 0.796993 0.705048
vt 0.860926 0.759532
vt 0.832283 0.888817
vt 0.708395 0.754846
vt 0.794085 0.731049
vt 0.862002 0.784905
vt 0.758277 0.807951
vt 0.691763 0.782229
vt 0.705754 0.774671
vt 0.733751 0.831511
vt 0.723887 0.847239
vt 0.708723 0.736511
vt 0.712125 0.734164
vt 0.720563 0.708983
vt 0.730896 0.702645
vt 0.728488 0.739950
vt 0.738346 0.723956
vt 0.722722 0.726524
vt 0.726547 0.725958
vn 0.0000 -1.0000 0.0000
vn 0.3034 0.9275 0.2186
vn 0.9980 0.0602 0.0187
vn -0.3354 0.0373 0.9413
vn -0.9978 0.0074 0.0658
vn -0.3260 0.0000 -0.9454
vn -0.2750 0.0485 -0.9602
vn -0.2827 0.0573 -0.9575
vn -0.3546 -0.0331 -0.9344
vn -0.4294 -0.0344 -0.9025
vn -0.3254 0.0578 -0.9438
vn -0.3356 0.0265 -0.9416
vn -0.3259 -0.0277 -0.9450
vn -1.0000 0.0000 -0.0000
vn -0.9964 -0.0848 -0.0000
vn -0.9964 0.0848 -0.0000
vn -0.9890 0.1479 -0.0000
vn -1.0000 0.0043 -0.0000
vn -0.1505 -0.2104 0.9660
vn -0.9970 -0.0770 -0.0107
vn -0.3705 0.0000 0.9289
vn -0.3703 -0.0315 0.9284
vn -0.3810 0.0301 0.9241
vn -0.3697 0.0656 0.9268
vn -0.2626 0.0830 0.9613
vn -0.3181 -0.0563 0.9464
vn -0.3350 -0.0654 0.9399
vn 1.0000 0.0000 0.0000
vn 0.9964 0.0848 0.0000
vn 0.9978 -0.0659 0.0000
vn 0.1078 0.0303 0.9937
vn 0.9999 -0.0172 0.0000
vn 0.9986 0.0534 0.0000
vn 0.9881 0.1538 0.0000
vn -0.9571 0.2696 -0.1064
vn -0.5316 -0.8470 0.0000
vn -0.2033 -0.2800 -0.9382
vn 0.4761 0.8738 0.0990
vn 0.9953 0.0873 0.0427
vn -0.5167 0.8557 -0.0283
vn 0.5579 -0.8295 0.0280
vn 0.1794 -0.0856 -0.9800
vn 0.3153 0.0185 0.9488
vn 0.1867 -0.0181 0.9822
vn 0.3509 0.0629 0.9343
vn 0.4312 -0.1164 0.8947
vn 0.4443 -0.0309 0.8954
vn 0.4338 0.0369 0.9002
vn 0.4341 0.0000 0.9008
vn 0.3844 0.0327 -0.9226
vn 0.3941 -0.0274 -0.9187
vn 0.3826 -0.1033 -0.9181
vn 0.3485 -0.0574 -0.9355
vn 0.3971 0.0474 -0.9166
vn 0.3308 0.1254 -0.9353
vn 0.4323 0.0379 -0.9010
vn 0.3846 0.0000 -0.9231
vn 0.5895 0.0327 0.8071
vn 0.8161 -0.5129 0.2663
vn 0.9802 -0.1487 0.1308
vn 0.3161 -0.6851 -0.6564
vn -0.2359 0.7305 0.6409
vn -0.0259 0.3973 -0.9173
vn 0.7744 0.1996 -0.6003
vn -0.5898 0.7700 0.2432
vn 0.9475 -0.2990 -0.1131
vn 0.9326 -0.0120 0.3606
vn -0.5401 0.3001 -0.7863
vn -0.2884 0.7093 0.6432
vn 0.2387 -0.6838 -0.6895
vn 0.5533 -0.7741 0.3076
vn -0.4755 -0.5923 0.6505
vn -0.0354 -0.7242 -0.6886
vn -0.1964 0.7244 0.6608
vn -0.7711 0.2266 -0.5950
vn -0.3340 0.3399 -0.8792
vn -0.2827 0.7181 0.6360
vn 0.2577 -0.6856 -0.6808
vn 0.6874 -0.6569 0.3099
usemtl Stick_diff
s off
f 45/1/1 46/2/1 3/3/1 4/4/1
f 47/5/2 8/6/2 7/7/2 48/8/2
f 15/9/3 5/10/3 6/11/3 22/12/3
f 62/13/4 48/14/4 7/15/4 29/16/4
f 29/17/5 7/18/5 8/19/5 36/20/5
f 55/21/6 45/22/6 4/23/6 30/24/6
f 47/25/7 49/26/7 36/27/7 8/28/7
f 49/26/8 50/29/8 35/30/8 36/27/8
f 50/29/9 51/31/9 34/32/9 35/30/9
f 51/31/10 52/33/10 33/34/10 34/32/10
f 52/33/11 53/35/11 32/36/11 33/34/11
f 53/35/12 54/37/12 31/38/12 32/36/12
f 54/37/13 55/21/13 30/24/13 31/38/13
f 3/39/14 23/40/14 30/41/14 4/42/14
f 23/40/15 24/43/15 31/44/15 30/41/15
f 24/43/16 25/45/16 32/46/16 31/44/16
f 25/45/17 26/47/17 33/48/17 32/46/17
f 26/47/18 27/49/18 34/50/18 33/48/18
f 27/51/19 28/52/19 38/53/19 37/54/19
f 28/55/20 29/17/20 36/20/20 35/56/20
f 46/57/21 56/58/21 23/59/21 3/60/21
f 56/58/22 57/61/22 24/62/22 23/59/22
f 57/61/23 58/63/23 25/64/23 24/62/23
f 58/63/24 59/65/24 26/66/24 25/64/24
f 59/65/25 60/67/25 27/51/25 26/66/25
f 60/67/26 61/68/26 28/52/26 27/51/26
f 61/68/27 62/13/27 29/16/27 28/52/27
f 1/69/28 9/70/28 16/71/28 2/72/28
f 9/70/29 10/73/29 17/74/29 16/71/29
f 10/75/30 11/76/30 18/77/30 17/78/30
f 19/79/31 18/80/31 43/81/31 44/82/31
f 12/83/32 13/84/32 20/85/32 19/86/32
f 13/84/33 14/87/33 21/88/33 20/85/33
f 14/87/34 15/9/34 22/12/34 21/88/34
f 37/89/35 38/90/35 40/91/35 39/92/35
f 34/93/36 27/94/36 37/95/36 39/96/36
f 35/97/37 34/93/37 39/96/37 40/98/37
f 28/52/38 35/99/38 40/100/38 38/53/38
f 41/101/39 42/102/39 44/103/39 43/104/39
f 12/105/40 19/106/40 44/107/40 42/108/40
f 18/109/41 11/110/41 41/111/41 43/112/41
f 11/113/42 12/114/42 42/115/42 41/116/42
f 21/117/43 22/118/43 62/13/43 61/68/43
f 20/119/44 21/117/44 61/68/44 60/67/44
f 19/79/45 20/119/45 60/67/45 59/65/45
f 18/80/46 19/79/46 59/65/46 58/63/46
f 17/120/47 18/80/47 58/63/47 57/61/47
f 16/121/48 17/120/48 57/61/48 56/58/48
f 2/122/49 16/121/49 56/58/49 46/57/49
f 10/73/50 9/70/50 55/21/50 54/37/50
f 11/113/51 10/73/51 54/37/51 53/35/51
f 12/114/52 11/113/52 53/35/52 52/33/52
f 13/123/53 12/114/53 52/33/53 51/31/53
f 14/124/54 13/123/54 51/31/54 50/29/54
f 15/125/55 14/124/55 50/29/55 49/26/55
f 5/126/56 15/125/56 49/26/56 47/25/56
f 9/70/57 1/69/57 45/22/57 55/21/57
f 22/118/58 6/127/58 48/14/58 62/13/58
f 81/128/59 79/129/59 64/130/59 66/131/59
f 1/132/1 2/133/1 46/2/1 45/1/1
f 63/134/60 65/135/60 66/131/60 64/130/60
f 79/136/61 80/137/61 63/138/61 64/139/61
f 82/140/62 81/141/62 66/142/62 65/143/62
f 80/144/63 82/145/63 65/135/63 63/134/63
f 5/146/64 47/147/64 70/148/64 69/149/64
f 47/150/65 48/151/65 68/152/65 70/153/65
f 6/11/66 5/10/66 69/154/66 67/155/66
f 48/156/67 6/11/67 67/155/67 68/157/67
f 78/158/68 76/159/68 74/160/68 72/161/68
f 76/162/69 75/163/69 73/164/69 74/165/69
f 77/166/70 78/167/70 72/168/70 71/169/70
f 75/170/71 77/171/71 71/172/71 73/173/71
f 68/174/72 67/175/72 77/171/72 75/170/72
f 67/176/73 69/177/73 78/167/73 77/166/73
f 70/178/74 68/179/74 75/163/74 76/162/74
f 69/180/75 70/181/75 76/159/75 78/158/75
f 72/161/76 74/160/76 82/145/76 80/144/76
f 74/165/77 73/164/77 81/141/77 82/140/77
f 71/169/78 72/168/78 80/137/78 79/136/78
f 73/173/79 71/172/79 79/129/79 81/128/79
