# Blender v2.91.2 OBJ File: ''
# www.blender.org
mtllib char_arm.mtl
o advancedCharacter
v -0.853914 -6.284447 1.000002
v -0.849584 -6.284447 -0.999998
v -0.849584 -0.284447 -0.999996
v -0.853914 -0.284447 1.000004
v -0.851754 -3.284447 1.000002
v 1.148246 -3.284447 1.000002
v 0.148246 -0.284447 1.000004
v -0.851754 -0.284447 1.000004
v -0.851754 -5.284447 1.000002
v -0.185084 -5.284447 1.000002
v 0.481576 -5.284447 1.000002
v 1.148246 -5.284447 1.000002
v -0.851754 -6.284447 1.000002
v -0.185084 -6.284447 1.000002
v 0.481576 -6.284447 1.000002
v 1.148246 -6.284447 1.000002
v 0.148246 -7.284447 1.000002
v 0.814916 -7.284447 1.000002
v 0.148246 -0.284447 -0.999996
v -0.851754 -0.284447 -0.999996
v 1.148246 -3.284447 -0.999997
v -0.851754 -3.284447 -0.999997
v -0.851754 -5.284447 -0.999998
v 1.148246 -5.284447 -0.999998
v 0.481576 -5.284447 -0.999998
v 1.148246 -6.284447 -0.999998
v 0.481576 -6.284447 -0.999998
v 0.814916 -7.284447 -0.999998
v 0.148246 -7.284447 -0.999998
v -0.851754 -5.284447 0.000002
v -0.851754 -6.284447 0.000002
v -0.185084 -5.284447 -0.999998
v -0.185084 -5.284447 0.000002
v -0.185084 -6.284447 0.000002
v -0.851754 -6.284447 -0.999998
vt 0.615923 0.377354
vt 0.686844 0.377354
vt 0.686844 0.590116
vt 0.615924 0.590116
vt 0.807349 0.794632
vt 0.879828 0.794633
vt 0.843588 0.903352
vt 0.807349 0.903352
vt 0.807349 0.722153
vt 0.831509 0.722154
vt 0.855669 0.722154
vt 0.879828 0.722154
vt 0.807349 0.685914
vt 0.831509 0.685913
vt 0.855668 0.685913
vt 0.879828 0.685913
vt 0.843588 0.649673
vt 0.867748 0.649674
vt 0.843589 0.975832
vt 0.807349 0.975831
vt 0.734869 0.903352
vt 0.698629 0.903352
vt 0.662390 0.794632
vt 0.734869 0.794632
vt 0.734869 0.722153
vt 0.662390 0.722153
vt 0.686549 0.722153
vt 0.662390 0.685913
vt 0.686549 0.685914
vt 0.674469 0.649674
vt 0.698630 0.649674
vt 0.952308 0.794632
vt 0.952308 0.903352
vt 0.879829 0.903352
vt 0.771110 0.722153
vt 0.771110 0.685913
vt 0.879828 0.625514
vt 0.952308 0.625514
vt 0.952308 0.649673
vt 0.879828 0.649673
vt 0.952307 0.722153
vt 0.952308 0.685913
vt 0.952307 0.504715
vt 0.952307 0.528874
vt 0.916066 0.528874
vt 0.916066 0.504714
vt 0.879827 0.528873
vt 0.952308 0.553034
vt 0.879827 0.553034
vt 0.771109 0.661754
vt 0.807349 0.661753
vt 0.952307 0.589274
vt 0.879827 0.589274
vt 0.746949 0.625514
vt 0.771108 0.625514
vt 0.746949 0.661753
vt 0.807349 0.625514
vn 1.0000 -0.0000 0.0022
vn 0.0000 -0.0000 1.0000
vn 0.0000 1.0000 0.0000
vn 0.0000 0.0000 -1.0000
vn 0.9487 0.3162 0.0000
vn -1.0000 -0.0000 0.0000
vn 0.0000 -1.0000 0.0000
vn 1.0000 0.0000 0.0000
vn 0.9864 -0.1644 -0.0000
vn 0.9864 -0.1643 -0.0000
vn 0.9487 -0.3162 0.0000
vn -0.9864 0.1643 -0.0000
vn -0.9864 0.1644 0.0000
vn -0.9487 0.3162 0.0000
usemtl lambert1
s 1
f 1/1/1 2/2/1 3/3/1
f 1/1/1 3/3/1 4/4/1
f 5/5/2 6/6/2 7/7/2
f 5/5/2 7/7/2 8/8/2
f 5/5/2 9/9/2 10/10/2
f 5/5/2 10/10/2 11/11/2
f 5/5/2 11/11/2 12/12/2
f 12/12/2 6/6/2 5/5/2
f 10/10/2 9/9/2 13/13/2
f 10/10/2 13/13/2 14/14/2
f 12/12/2 11/11/2 15/15/2
f 12/12/2 15/15/2 16/16/2
f 16/16/2 15/15/2 17/17/2
f 16/16/2 17/17/2 18/18/2
f 8/8/3 7/7/3 19/19/3
f 8/8/3 19/19/3 20/20/3
f 20/21/4 19/22/4 21/23/4
f 20/21/4 21/23/4 22/24/4
f 23/25/4 22/24/4 21/23/4
f 23/25/4 21/23/4 24/26/4
f 25/27/4 24/26/4 26/28/4
f 25/27/4 26/28/4 27/29/4
f 27/29/4 26/28/4 28/30/4
f 27/29/4 28/30/4 29/31/4
f 6/6/5 21/32/5 19/33/5
f 6/6/5 19/33/5 7/34/5
f 22/24/6 5/5/6 8/8/6
f 22/24/6 8/8/6 20/21/6
f 22/24/6 23/25/6 30/35/6
f 22/24/6 30/35/6 9/9/6
f 9/9/6 5/5/6 22/24/6
f 9/9/6 30/35/6 31/36/6
f 9/9/6 31/36/6 13/13/6
f 17/37/7 29/38/7 28/39/7
f 17/37/7 28/39/7 18/40/7
f 12/12/8 24/41/8 21/32/8
f 12/12/8 21/32/8 6/6/8
f 24/41/8 12/12/8 16/16/9
f 24/41/8 16/16/9 26/42/10
f 26/42/10 16/16/9 18/40/11
f 26/42/10 18/40/11 28/39/11
f 23/43/7 32/44/7 33/45/7
f 23/43/7 33/45/7 30/46/7
f 10/47/7 32/44/7 25/48/7
f 25/48/7 11/49/7 10/47/7
f 31/36/7 34/50/7 14/51/7
f 31/36/7 14/51/7 13/13/7
f 11/49/6 25/48/6 27/52/12
f 11/49/6 27/52/12 15/53/13
f 15/53/13 27/52/12 29/38/14
f 15/53/13 29/38/14 17/37/14
f 30/54/4 33/55/4 34/50/4
f 30/54/4 34/50/4 31/56/4
f 33/55/8 10/57/8 14/51/8
f 33/55/8 14/51/8 34/50/8
l 13 35
