# Blender v2.91.2 OBJ File: 'Short Sword.blend'
# www.blender.org
mtllib Short Sword.mtl
o Short_Sword
v 0.055894 -0.902570 -0.117228
v 0.055894 0.699889 -0.128868
v 0.147730 -0.902570 -0.101979
v 0.162153 0.699889 -0.111603
v 0.214959 -0.902570 -0.059566
v 0.239939 0.699889 -0.064434
v 0.239567 -0.902570 0.000000
v 0.268411 0.699889 0.000000
v 0.214959 -0.902570 0.059566
v 0.239939 0.699889 0.064434
v 0.147730 -0.902570 0.101979
v 0.162153 0.699889 0.111603
v 0.055894 -0.902570 0.117228
v 0.055894 0.699889 0.128868
v -0.035942 -0.902570 0.101979
v -0.050364 0.699889 0.111603
v -0.103171 -0.902570 0.059566
v -0.128151 0.699889 0.064434
v -0.127778 -0.902570 0.000000
v -0.156622 0.699889 0.000000
v -0.103171 -0.902570 -0.059566
v -0.128151 0.699889 -0.064434
v -0.035942 -0.902570 -0.101979
v -0.050364 0.699889 -0.111603
v -0.055306 -1.299264 -0.105149
v -0.143209 -1.299264 -0.064413
v -0.179143 -1.299264 0.000000
v -0.143208 -1.299264 0.064413
v -0.055306 -1.299264 0.105150
v 0.055894 -1.299264 0.118613
v 0.167094 -1.299264 0.105150
v 0.254997 -1.299264 0.064413
v 0.290931 -1.299264 0.000000
v 0.254997 -1.299264 -0.064413
v 0.167094 -1.299264 -0.105149
v 0.055894 -1.299264 -0.118613
v 0.055894 -0.936738 -0.157800
v 0.168608 -0.936738 -0.139861
v 0.258243 -0.936738 -0.085653
v 0.295245 -0.936738 0.000000
v 0.258243 -0.936738 0.085654
v 0.168608 -0.936738 0.139861
v 0.055894 -0.936738 0.157800
v -0.056820 -0.936738 0.139861
v -0.146454 -0.936738 0.085654
v -0.183457 -0.936738 0.000000
v -0.146454 -0.936738 -0.085653
v -0.056820 -0.936738 -0.139861
v 0.055894 -1.224062 -0.137517
v 0.055894 -1.017486 -0.168931
v 0.192696 -1.017486 -0.149211
v 0.191288 -1.224062 -0.121624
v 0.302486 -1.017486 -0.090661
v 0.298315 -1.224062 -0.074105
v 0.348247 -1.017486 0.000000
v 0.342067 -1.224062 0.000000
v 0.302486 -1.017486 0.090661
v 0.298315 -1.224062 0.074105
v 0.192696 -1.017486 0.149211
v 0.191288 -1.224062 0.121624
v 0.055894 -1.017486 0.168931
v 0.055894 -1.224062 0.137518
v -0.080908 -1.017486 0.149211
v -0.079499 -1.224062 0.121624
v -0.190698 -1.017486 0.090661
v -0.186526 -1.224062 0.074105
v -0.236459 -1.017486 0.000000
v -0.230279 -1.224062 0.000000
v -0.190698 -1.017486 -0.090661
v -0.186526 -1.224062 -0.074105
v -0.080908 -1.017486 -0.149211
v -0.079499 -1.224062 -0.121624
v -0.229518 3.536071 0.019189
v -0.229518 3.536071 -0.019189
v 0.343362 3.536071 -0.019189
v 0.343362 3.536071 0.019189
v 0.417764 6.198409 -0.019189
v 0.417764 0.873733 -0.016091
v 0.417764 6.198409 0.019189
v 0.417764 0.873733 0.016091
v -0.303920 6.198409 -0.019189
v -0.303920 0.873733 -0.016091
v -0.303920 6.198409 0.019189
v -0.303920 0.873733 0.016091
v 0.055894 -1.337454 0.000000
v -0.191409 0.656866 -0.162241
v -0.191409 0.903337 -0.162241
v -0.191409 0.656866 0.162241
v -0.191409 0.903337 0.162241
v 0.297678 0.903337 -0.162241
v 0.297678 0.656866 0.162241
v 0.297678 0.656866 -0.162241
v 0.297678 0.903337 0.162241
v -0.485324 0.686883 0.081624
v -0.552481 0.686883 0.011820
v -0.506477 0.686883 0.039103
v -0.552481 0.883260 0.011820
v -0.485324 0.883260 0.081624
v -0.506477 0.883260 0.039103
v -0.552481 0.686883 -0.011820
v -0.485324 0.686883 -0.081624
v -0.506477 0.686883 -0.039103
v -0.485324 0.883260 -0.081624
v -0.552481 0.883260 -0.011820
v -0.506477 0.883260 -0.039103
v 0.638083 0.686883 0.011820
v 0.571204 0.686883 0.082431
v 0.592269 0.686883 0.039655
v 0.571204 0.883260 0.082431
v 0.638083 0.883260 0.011820
v 0.592269 0.883260 0.039655
v 0.571204 0.686883 -0.082431
v 0.638083 0.686883 -0.011820
v 0.592269 0.686883 -0.039655
v 0.638083 0.883260 -0.011820
v 0.571204 0.883260 -0.082431
v 0.592269 0.883260 -0.039655
v 0.056922 6.198409 0.074685
v 0.056922 0.873733 0.062625
v 0.056922 6.198409 -0.074685
v 0.056922 0.873733 -0.062625
v 0.056922 3.536071 0.074685
v 0.056922 3.536071 -0.074685
v 0.056922 8.200035 0.015211
v -0.007363 8.083996 0.016024
v 0.121207 8.083996 -0.016024
v 0.121207 8.083996 0.016024
v 0.056922 8.200035 -0.015211
v -0.007363 8.083996 -0.016024
v 0.055894 -1.127647 -0.209672
v 0.055894 -1.041980 -0.219576
v 0.232674 -1.041759 -0.194698
v 0.241864 -1.127867 -0.186131
v 0.055894 -1.211190 -0.189760
v 0.226004 -1.211839 -0.169643
v 0.384293 -1.041141 -0.119100
v 0.396512 -1.128436 -0.114426
v 0.368117 -1.213658 -0.105909
v 0.451613 -1.040707 0.000000
v 0.463146 -1.128792 0.000000
v 0.430046 -1.214942 0.000000
v 0.384293 -1.041141 0.119100
v 0.396512 -1.128436 0.114426
v 0.368117 -1.213658 0.105909
v 0.232674 -1.041759 0.194698
v 0.241864 -1.127867 0.186131
v 0.226004 -1.211839 0.169644
v 0.055894 -1.041980 0.219576
v 0.055894 -1.127647 0.209672
v 0.055894 -1.211190 0.189760
v -0.120885 -1.041759 0.194698
v -0.130075 -1.127867 0.186131
v -0.114216 -1.211839 0.169644
v -0.272505 -1.041141 0.119100
v -0.284724 -1.128436 0.114426
v -0.256328 -1.213658 0.105909
v -0.339825 -1.040707 0.000000
v -0.351357 -1.128792 0.000000
v -0.318258 -1.214942 0.000000
v -0.272505 -1.041141 -0.119100
v -0.284724 -1.128436 -0.114426
v -0.256329 -1.213658 -0.105909
v -0.120886 -1.041759 -0.194698
v -0.130075 -1.127867 -0.186131
v -0.114216 -1.211839 -0.169643
v 0.055894 -0.101340 -0.099232
v 0.135966 -0.101340 -0.085938
v 0.194582 -0.101340 -0.049616
v 0.216038 -0.101340 0.000000
v 0.194582 -0.101340 0.049616
v 0.135966 -0.101340 0.085938
v 0.055894 -0.101340 0.099233
v -0.024177 -0.101340 0.085938
v -0.082794 -0.101340 0.049616
v -0.104249 -0.101340 0.000000
v -0.082794 -0.101340 -0.049616
v -0.024178 -0.101340 -0.085938
v 0.056922 8.085009 -0.018629
v 0.056922 8.085009 0.018629
vt 0.752980 0.268389
vt 0.752980 0.525862
vt 0.734764 0.525862
vt 0.734764 0.268389
vt 0.716772 0.932236
vt 0.534994 0.932236
vt 0.534994 0.908625
vt 0.716772 0.908625
vt 0.534994 0.887548
vt 0.716772 0.887548
vt 0.534994 0.870813
vt 0.716772 0.870813
vt 0.534994 0.854077
vt 0.716772 0.854077
vt 0.534994 0.833000
vt 0.716772 0.833000
vt 0.534994 0.809389
vt 0.716772 0.809389
vt 0.534994 0.785778
vt 0.716772 0.785778
vt 0.534994 0.764701
vt 0.716772 0.764701
vt 0.534994 0.747966
vt 0.716772 0.747966
vt 0.716772 0.993659
vt 0.534994 0.993659
vt 0.534994 0.976924
vt 0.716772 0.976924
vt 0.534994 0.955847
vt 0.716772 0.955847
vt 0.232402 0.805084
vt 0.246207 0.807468
vt 0.218694 0.842556
vt 0.911598 0.809389
vt 0.911598 0.785778
vt 0.931689 0.785778
vt 0.931689 0.809389
vt 0.911598 0.993659
vt 0.911598 0.976924
vt 0.931689 0.976924
vt 0.931689 0.993659
vt 0.911598 0.887548
vt 0.911598 0.870813
vt 0.931689 0.870813
vt 0.931689 0.887548
vt 0.898359 0.976924
vt 0.898359 0.955847
vt 0.911598 0.955847
vt 0.898359 0.833000
vt 0.898359 0.809389
vt 0.911598 0.833000
vt 0.931689 0.833000
vt 0.911598 0.764701
vt 0.911598 0.747966
vt 0.931689 0.747966
vt 0.931689 0.764701
vt 0.898359 0.932236
vt 0.898359 0.908625
vt 0.911598 0.908625
vt 0.911598 0.932236
vt 0.931689 0.908625
vt 0.898359 0.785778
vt 0.898359 0.764701
vt 0.898359 0.887548
vt 0.898359 0.870813
vt 0.250859 0.867778
vt 0.227360 0.889043
vt 0.221693 0.872396
vt 0.237282 0.857132
vt 0.931689 0.932236
vt 0.200501 0.899236
vt 0.204985 0.880028
vt 0.178464 0.893859
vt 0.167987 0.873741
vt 0.185572 0.864806
vt 0.191180 0.877643
vt 0.269400 0.811371
vt 0.265906 0.839886
vt 0.248388 0.838352
vt 0.251815 0.820306
vt 0.258923 0.791252
vt 0.236886 0.785875
vt 0.210027 0.796069
vt 0.215694 0.812715
vt 0.186528 0.817333
vt 0.200105 0.827980
vt 0.171481 0.845226
vt 0.188999 0.846759
vt 0.898359 0.854077
vt 0.911598 0.854077
vt 0.898359 0.747966
vt 0.931689 0.854077
vt 0.931689 0.955847
vt 0.898359 0.993659
vt 0.194457 0.917414
vt 0.164284 0.911943
vt 0.949521 0.908625
vt 0.949521 0.932236
vt 0.949521 0.955847
vt 0.949521 0.976924
vt 0.949521 0.764701
vt 0.949521 0.785778
vt 0.949521 0.833000
vt 0.949521 0.854077
vt 0.280239 0.839400
vt 0.260726 0.875515
vt 0.949521 0.887548
vt 0.273103 0.773168
vt 0.285612 0.801166
vt 0.176661 0.809596
vt 0.207081 0.782033
vt 0.151775 0.883945
vt 0.230306 0.903078
vt 0.949521 0.747966
vt 0.949521 0.809389
vt 0.949521 0.870813
vt 0.242930 0.767698
vt 0.157148 0.845712
vt 0.949521 0.993659
vt 0.752980 0.010915
vt 0.734764 0.010915
vt 0.186564 0.004580
vt 0.186564 0.273245
vt 0.047232 0.273319
vt 0.011041 0.004643
vt 0.971762 0.608852
vt 0.971762 0.326369
vt 0.988366 0.326369
vt 0.988366 0.608852
vt 0.538052 0.004580
vt 0.538052 0.273245
vt 0.398720 0.273319
vt 0.362529 0.004643
vt 0.538052 0.732395
vt 0.569321 0.732296
vt 0.538052 0.744008
vt 0.186564 0.541925
vt 0.011041 0.542000
vt 0.971762 0.043887
vt 0.988366 0.043887
vt 0.538052 0.541925
vt 0.362529 0.542000
vt 0.856075 0.087959
vt 0.801821 0.087959
vt 0.806240 0.020872
vt 0.849467 0.020872
vt 0.849467 0.258338
vt 0.806240 0.258338
vt 0.801821 0.195618
vt 0.856075 0.195618
vt 0.320891 0.666421
vt 0.338636 0.601573
vt 0.347996 0.596917
vt 0.354002 0.586790
vt 0.359205 0.586790
vt 0.365211 0.596917
vt 0.374571 0.601573
vt 0.392316 0.666421
vt 0.354002 0.849174
vt 0.347874 0.839089
vt 0.338459 0.834452
vt 0.320891 0.774081
vt 0.392316 0.774081
vt 0.374749 0.834452
vt 0.365333 0.839089
vt 0.359205 0.849174
vt 0.849467 0.545600
vt 0.806240 0.545600
vt 0.801821 0.478513
vt 0.856075 0.478513
vt 0.849467 0.573031
vt 0.806240 0.573031
vt 0.806240 0.567828
vt 0.849467 0.567828
vt 0.849467 0.285838
vt 0.806240 0.285838
vt 0.806240 0.280634
vt 0.849467 0.280634
vt 0.104093 0.853086
vt 0.086525 0.913657
vt 0.077109 0.918294
vt 0.070982 0.928378
vt 0.065778 0.928378
vt 0.059651 0.918294
vt 0.050235 0.913657
vt 0.032667 0.853086
vt 0.856075 0.370854
vt 0.801821 0.370854
vt 0.806240 0.308134
vt 0.849467 0.308134
vt 0.104093 0.745427
vt 0.032667 0.745427
vt 0.849467 0.595259
vt 0.806240 0.595259
vt 0.806240 0.584805
vt 0.849467 0.584805
vt 0.849467 0.556054
vt 0.806240 0.556054
vt 0.849467 0.297638
vt 0.806240 0.297638
vt 0.849467 0.268834
vt 0.806240 0.268834
vt 0.070982 0.665610
vt 0.076988 0.675736
vt 0.086347 0.680392
vt 0.050413 0.680392
vt 0.059773 0.675736
vt 0.065778 0.665610
vt 0.677383 0.273319
vt 0.713574 0.542000
vt 0.325895 0.273319
vt 0.362086 0.542000
vt 0.155294 0.732296
vt 0.186564 0.732395
vt 0.186564 0.744008
vt 0.713574 0.004643
vt 0.362086 0.004643
vt 0.734764 0.722548
vt 0.734764 0.709722
vt 0.752980 0.709722
vt 0.752980 0.722548
vt 0.917154 0.061787
vt 0.917154 0.047716
vt 0.933758 0.047716
vt 0.933758 0.061787
vt 0.217833 0.732296
vt 0.933758 0.263506
vt 0.917154 0.263506
vt 0.506782 0.732296
vt 0.969369 0.908625
vt 0.969369 0.932236
vt 0.989483 0.908625
vt 0.989483 0.932236
vt 0.969369 0.887548
vt 0.989483 0.887548
vt 0.969369 0.870813
vt 0.989483 0.870813
vt 0.969369 0.854077
vt 0.989483 0.854077
vt 0.969369 0.833000
vt 0.989483 0.833000
vt 0.969369 0.809389
vt 0.989483 0.809389
vt 0.969369 0.785778
vt 0.989483 0.785778
vt 0.969369 0.764701
vt 0.989483 0.764701
vt 0.969369 0.747966
vt 0.989483 0.747966
vt 0.969369 0.976924
vt 0.969369 0.993659
vt 0.989483 0.976924
vt 0.989483 0.993659
vt 0.969369 0.955847
vt 0.989483 0.955847
vn -0.7573 -0.0010 0.6530
vn -0.7729 0.0505 0.6326
vn -0.7729 0.0505 -0.6326
vn -0.7573 -0.0010 -0.6530
vn 0.0000 -0.0074 -1.0000
vn 0.0000 -0.0371 -0.9993
vn 0.3504 -0.0415 -0.9357
vn 0.3497 -0.0089 -0.9368
vn 0.7555 -0.0548 -0.6529
vn 0.7555 -0.0138 -0.6550
vn 0.9979 -0.0649 0.0000
vn 0.9998 -0.0175 0.0000
vn 0.7555 -0.0548 0.6529
vn 0.7555 -0.0138 0.6550
vn 0.3504 -0.0415 0.9357
vn 0.3497 -0.0089 0.9368
vn 0.0000 -0.0371 0.9993
vn 0.0000 -0.0074 1.0000
vn -0.3504 -0.0415 0.9357
vn -0.3497 -0.0089 0.9368
vn -0.7555 -0.0548 0.6529
vn -0.7555 -0.0138 0.6550
vn -0.9979 -0.0649 0.0000
vn -0.9998 -0.0175 0.0000
vn -0.7555 -0.0548 -0.6529
vn -0.7555 -0.0138 -0.6550
vn -0.3504 -0.0416 -0.9357
vn -0.3497 -0.0089 -0.9368
vn -0.4282 -0.7418 0.5161
vn -0.6197 -0.7848 0.0000
vn 0.0000 -1.0000 0.0000
vn 0.0000 0.4750 0.8800
vn -0.2765 0.5081 0.8156
vn -0.2392 0.6621 0.7102
vn 0.0000 0.6152 0.7883
vn -0.7348 0.6783 0.0000
vn -0.5708 0.6041 -0.5560
vn -0.4423 0.7879 -0.4283
vn -0.4998 0.8661 0.0000
vn 0.5708 0.6041 -0.5560
vn 0.7348 0.6783 0.0000
vn 0.4998 0.8661 0.0000
vn 0.4423 0.7879 -0.4283
vn -0.6429 0.5165 -0.5656
vn -0.3055 0.4674 -0.8296
vn -0.2765 0.5081 -0.8156
vn 0.3055 0.4674 0.8296
vn 0.0000 0.4516 0.8922
vn 0.2765 0.5081 0.8156
vn 0.2392 0.6621 0.7102
vn -0.5708 0.6041 0.5560
vn -0.4423 0.7879 0.4283
vn 0.0000 0.4516 -0.8922
vn 0.3055 0.4674 -0.8296
vn 0.2765 0.5081 -0.8156
vn 0.0000 0.4750 -0.8800
vn 0.2392 0.6621 -0.7102
vn -0.3055 0.4674 0.8296
vn -0.6429 0.5165 0.5656
vn 0.6429 0.5165 -0.5656
vn 0.8305 0.5570 0.0000
vn 0.0000 -0.7311 -0.6822
vn 0.1772 -0.7593 -0.6261
vn 0.1886 -0.6877 -0.7011
vn 0.0000 -0.6667 -0.7453
vn 0.0000 0.6152 -0.7883
vn 0.3571 -0.8495 -0.3884
vn 0.4282 -0.7418 -0.5161
vn 0.4003 -0.9163 0.0000
vn 0.3571 -0.8495 0.3884
vn 0.4282 -0.7418 0.5161
vn 0.6197 -0.7848 0.0000
vn -0.3571 -0.8495 -0.3884
vn -0.1772 -0.7593 -0.6261
vn -0.1886 -0.6877 -0.7011
vn -0.4282 -0.7418 -0.5161
vn -0.4003 -0.9163 0.0000
vn -0.3571 -0.8495 0.3884
vn -0.1772 -0.7593 0.6261
vn -0.1886 -0.6877 0.7011
vn 0.0000 -0.7311 0.6822
vn 0.0000 -0.6667 0.7453
vn 0.1772 -0.7593 0.6261
vn 0.1886 -0.6877 0.7011
vn 0.6429 0.5165 0.5656
vn 0.5708 0.6041 0.5560
vn -0.8305 0.5570 0.0000
vn 0.4423 0.7879 0.4283
vn -0.2392 0.6621 -0.7102
vn 0.4574 -0.7069 -0.5395
vn 0.6954 -0.7186 0.0000
vn 0.2501 0.5020 -0.8279
vn 0.0000 0.4691 -0.8831
vn -0.2501 0.5020 -0.8279
vn -0.5571 0.5679 -0.6059
vn -0.5571 0.5679 0.6059
vn -0.2501 0.5020 0.8279
vn 0.2501 0.5020 0.8279
vn 0.5571 0.5679 0.6059
vn -0.1888 -0.6893 -0.6994
vn 0.0000 -0.6831 -0.7303
vn 0.5571 0.5679 -0.6059
vn -0.6954 -0.7186 0.0000
vn -0.4574 -0.7069 -0.5395
vn 0.0000 -0.6831 0.7303
vn -0.1888 -0.6893 0.6994
vn 0.4574 -0.7069 0.5395
vn 0.1888 -0.6893 -0.6994
vn -0.8077 0.5896 0.0000
vn 0.0000 0.4691 0.8831
vn 0.8077 0.5896 0.0000
vn -0.4574 -0.7069 0.5395
vn 0.1888 -0.6893 0.6994
vn -0.7651 0.0181 0.6437
vn -0.7651 0.0181 -0.6437
vn 0.0000 -0.0006 1.0000
vn 0.0000 -0.0015 1.0000
vn 0.7651 0.0181 -0.6437
vn 0.7573 -0.0010 -0.6530
vn 0.7573 -0.0010 0.6530
vn 0.7651 0.0181 0.6437
vn 0.0000 -0.0006 -1.0000
vn 0.0000 -0.0015 -1.0000
vn 0.0000 0.0281 -0.9996
vn -0.7323 0.2469 -0.6346
vn 0.0000 0.8388 -0.5444
vn 0.0000 0.0120 0.9999
vn 0.7729 0.0505 -0.6326
vn 0.7729 0.0505 0.6326
vn 0.0000 0.0120 -0.9999
vn -0.1230 -0.6870 0.7161
vn -0.1147 0.6843 0.7201
vn -0.5235 0.6045 0.6004
vn -0.5366 -0.5936 0.5997
vn 0.5449 -0.5919 0.5938
vn 0.5309 0.6038 0.5946
vn 0.1215 0.6830 0.7202
vn 0.1302 -0.6858 0.7160
vn -0.1147 0.6843 -0.7201
vn -0.5235 0.6045 -0.6004
vn -0.5857 0.6328 -0.5064
vn -0.7082 0.5939 -0.3817
vn -0.7082 0.5939 0.3817
vn -0.5857 0.6328 0.5064
vn 0.7111 0.5933 -0.3772
vn 0.5908 0.6322 -0.5012
vn 0.5309 0.6038 -0.5946
vn 0.1215 0.6830 -0.7202
vn 0.5908 0.6322 0.5012
vn 0.7111 0.5933 0.3772
vn -0.5366 -0.5936 -0.5997
vn -0.1230 -0.6870 -0.7161
vn -0.7179 -0.5851 0.3771
vn -0.7179 -0.5851 -0.3771
vn 0.7214 -0.5839 -0.3722
vn 0.7214 -0.5839 0.3722
vn 0.1302 -0.6858 -0.7160
vn 0.5449 -0.5919 -0.5938
vn 0.6051 -0.6232 -0.4955
vn 0.6051 -0.6232 0.4955
vn -0.5991 -0.6245 0.5010
vn -0.5991 -0.6245 -0.5010
vn -0.7323 0.2469 0.6346
vn 0.0000 0.0281 0.9996
vn 0.0000 0.8388 0.5444
vn 0.7323 0.2469 -0.6346
vn 0.7323 0.2469 0.6346
vn 0.2878 -0.1424 -0.9470
vn 0.0000 -0.1609 -0.9869
vn 0.6910 -0.1192 -0.7130
vn 0.9932 -0.1166 0.0000
vn 0.6910 -0.1192 0.7130
vn 0.2878 -0.1424 0.9470
vn 0.0000 -0.1609 0.9869
vn -0.2878 -0.1424 0.9470
vn -0.6910 -0.1192 0.7130
vn -0.9932 -0.1166 0.0000
vn -0.6910 -0.1192 -0.7130
vn -0.2878 -0.1424 -0.9470
usemtl Short_Sword
s 1
f 73/1/1 83/2/2 81/3/3 74/4/4
f 166/5/5 2/6/6 4/7/7 167/8/8
f 167/8/8 4/7/7 6/9/9 168/10/10
f 168/10/10 6/9/9 8/11/11 169/12/12
f 169/12/12 8/11/11 10/13/13 170/14/14
f 170/14/14 10/13/13 12/15/15 171/16/16
f 171/16/16 12/15/15 14/17/17 172/18/18
f 172/18/18 14/17/17 16/19/19 173/20/20
f 173/20/20 16/19/19 18/21/21 174/22/22
f 174/22/22 18/21/21 20/23/23 175/24/24
f 175/25/24 20/26/23 22/27/25 176/28/26
f 176/28/26 22/27/25 24/29/27 177/30/28
f 28/31/29 27/32/30 85/33/31
f 43/34/32 44/35/33 63/36/34 61/37/35
f 46/38/36 47/39/37 69/40/38 67/41/39
f 39/42/40 40/43/41 55/44/42 53/45/43
f 21/46/44 23/47/45 48/48/46 47/39/37
f 11/49/47 13/50/48 43/34/32 42/51/49
f 42/51/49 43/34/32 61/37/35 59/52/50
f 45/53/51 46/54/36 67/55/39 65/56/52
f 1/57/53 3/58/54 38/59/55 37/60/56
f 38/59/55 39/42/40 53/45/43 51/61/57
f 15/62/58 17/63/59 45/53/51 44/35/33
f 5/64/60 7/65/61 40/43/41 39/42/40
f 49/66/62 52/67/63 35/68/64 36/69/65
f 37/60/56 38/59/55 51/61/57 50/70/66
f 52/67/63 54/71/67 34/72/68 35/68/64
f 56/73/69 58/74/70 32/75/71 33/76/72
f 54/71/67 56/73/69 33/76/72 34/72/68
f 70/77/73 72/78/74 25/79/75 26/80/76
f 68/81/77 70/77/73 26/80/76 27/32/30
f 66/82/78 68/81/77 27/32/30 28/31/29
f 64/83/79 66/82/78 28/31/29 29/84/80
f 62/85/81 64/83/79 29/84/80 30/86/82
f 60/87/83 62/85/81 30/86/82 31/88/84
f 58/74/70 60/87/83 31/88/84 32/75/71
f 7/65/61 9/89/85 41/90/86 40/43/41
f 17/63/59 19/91/87 46/54/36 45/53/51
f 41/90/86 42/51/49 59/52/50 57/92/88
f 44/35/33 45/53/51 65/56/52 63/36/34
f 3/58/54 5/64/60 39/42/40 38/59/55
f 13/50/48 15/62/58 44/35/33 43/34/32
f 23/47/45 1/57/53 37/60/56 48/48/46
f 48/48/46 37/60/56 50/70/66 71/93/89
f 9/89/85 11/49/47 42/51/49 41/90/86
f 19/94/87 21/46/44 47/39/37 46/38/36
f 47/39/37 48/48/46 71/93/89 69/40/38
f 40/43/41 41/90/86 57/92/88 55/44/42
f 56/73/69 54/71/67 138/95/90 141/96/91
f 50/70/66 51/61/57 132/97/92 131/98/93
f 69/40/38 71/93/89 163/99/94 160/100/95
f 63/36/34 65/56/52 154/101/96 151/102/97
f 57/92/88 59/52/50 145/103/98 142/104/99
f 49/66/62 72/78/74 165/105/100 134/106/101
f 51/61/57 53/45/43 136/107/102 132/97/92
f 70/77/73 68/81/77 159/108/103 162/109/104
f 64/83/79 62/85/81 150/110/105 153/111/106
f 58/74/70 56/73/69 141/96/91 144/112/107
f 52/67/63 49/66/62 134/106/101 135/113/108
f 71/93/89 50/70/66 131/98/93 163/99/94
f 65/56/52 67/55/39 157/114/109 154/101/96
f 59/52/50 61/37/35 148/115/110 145/103/98
f 53/45/43 55/44/42 139/116/111 136/107/102
f 72/78/74 70/77/73 162/109/104 165/105/100
f 66/82/78 64/83/79 153/111/106 156/117/112
f 60/87/83 58/74/70 144/112/107 147/118/113
f 54/71/67 52/67/63 135/113/108 138/95/90
f 67/41/39 69/40/38 160/100/95 157/119/109
f 61/37/35 63/36/34 151/102/97 148/115/110
f 55/44/42 57/92/88 142/104/99 139/116/111
f 68/81/77 66/82/78 156/117/112 159/108/103
f 62/85/81 60/87/83 147/118/113 150/110/105
f 72/78/74 49/66/62 36/69/65 25/79/75
f 84/120/114 73/1/1 74/4/4 82/121/115
f 119/122/116 122/123/117 73/124/1 84/125/114
f 78/126/118 75/127/119 76/128/120 80/129/121
f 121/130/122 123/131/123 75/132/119 78/133/118
f 178/134/124 129/135/125 128/136/126
f 122/123/117 118/137/127 83/138/2 73/124/1
f 75/127/119 77/139/128 79/140/129 76/128/120
f 123/131/123 120/141/130 77/142/128 75/132/119
f 32/75/71 31/88/84 85/33/31
f 34/72/68 33/76/72 85/33/31
f 33/76/72 32/75/71 85/33/31
f 29/84/80 28/31/29 85/33/31
f 35/68/64 34/72/68 85/33/31
f 25/79/75 36/69/65 85/33/31
f 27/32/30 26/80/76 85/33/31
f 30/86/82 29/84/80 85/33/31
f 31/88/84 30/86/82 85/33/31
f 36/69/65 35/68/64 85/33/31
f 26/80/76 25/79/75 85/33/31
f 88/143/131 89/144/132 98/145/133 94/146/134
f 107/147/135 109/148/136 93/149/137 91/150/138
f 87/151/139 103/152/140 105/153/141 104/154/142 97/155/143 99/156/144 98/157/133 89/158/132
f 115/159/145 117/160/146 116/161/147 90/162/148 93/163/137 109/164/136 111/165/149 110/166/150
f 101/167/151 103/168/140 87/169/139 86/170/152
f 90/162/148 87/151/139 89/158/132 93/163/137
f 95/171/153 97/172/143 104/173/142 100/174/154
f 91/150/138 93/149/137 89/144/132 88/143/131
f 113/175/155 115/176/145 110/177/150 106/178/156
f 92/179/157 112/180/158 114/181/159 113/182/155 106/183/156 108/184/160 107/185/135 91/186/138
f 92/187/157 90/188/148 116/189/147 112/190/158
f 86/191/152 92/179/157 91/186/138 88/192/131
f 86/170/152 87/169/139 90/188/148 92/187/157
f 94/193/134 98/194/133 99/195/144 96/196/161
f 96/196/161 99/195/144 97/172/143 95/171/153
f 103/168/140 101/167/151 102/197/162 105/198/141
f 105/198/141 102/197/162 100/174/154 104/173/142
f 115/176/145 113/175/155 114/199/159 117/200/146
f 117/200/146 114/199/159 112/190/158 116/189/147
f 109/148/136 107/147/135 108/201/160 111/202/149
f 111/202/149 108/201/160 106/178/156 110/177/150
f 100/203/154 102/204/162 101/205/151 86/191/152 88/192/131 94/206/134 96/207/161 95/208/153
f 177/30/28 24/29/27 2/6/6 166/5/5
f 74/209/4 81/210/3 120/141/130 123/131/123
f 76/211/120 79/212/129 118/137/127 122/123/117
f 125/213/163 179/214/164 124/215/165
f 82/216/115 74/209/4 123/131/123 121/130/122
f 80/217/121 76/211/120 122/123/117 119/122/116
f 128/218/126 129/219/125 125/220/163 124/221/165
f 126/222/166 128/223/126 124/224/165 127/225/167
f 179/214/164 127/226/167 124/215/165
f 79/227/129 77/228/128 126/222/166 127/225/167
f 126/229/166 178/134/124 128/136/126
f 81/3/3 83/2/2 125/220/163 129/219/125
f 131/98/93 132/97/92 133/230/168 130/231/169
f 130/231/169 133/230/168 135/232/108 134/233/101
f 132/97/92 136/107/102 137/234/170 133/230/168
f 133/230/168 137/234/170 138/235/90 135/232/108
f 136/107/102 139/116/111 140/236/171 137/234/170
f 137/234/170 140/236/171 141/237/91 138/235/90
f 139/116/111 142/104/99 143/238/172 140/236/171
f 140/236/171 143/238/172 144/239/107 141/237/91
f 142/104/99 145/103/98 146/240/173 143/238/172
f 143/238/172 146/240/173 147/241/113 144/239/107
f 145/103/98 148/115/110 149/242/174 146/240/173
f 146/240/173 149/242/174 150/243/105 147/241/113
f 148/115/110 151/102/97 152/244/175 149/242/174
f 149/242/174 152/244/175 153/245/106 150/243/105
f 151/102/97 154/101/96 155/246/176 152/244/175
f 152/244/175 155/246/176 156/247/112 153/245/106
f 154/101/96 157/114/109 158/248/177 155/246/176
f 155/246/176 158/248/177 159/249/103 156/247/112
f 157/119/109 160/100/95 161/250/178 158/251/177
f 158/251/177 161/250/178 162/252/104 159/253/103
f 160/100/95 163/99/94 164/254/179 161/250/178
f 161/250/178 164/254/179 165/255/100 162/252/104
f 163/99/94 131/98/93 130/231/169 164/254/179
f 164/254/179 130/231/169 134/233/101 165/255/100
f 23/47/45 177/30/28 166/5/5 1/57/53
f 21/46/44 176/28/26 177/30/28 23/47/45
f 19/94/87 175/25/24 176/28/26 21/46/44
f 17/63/59 174/22/22 175/24/24 19/91/87
f 15/62/58 173/20/20 174/22/22 17/63/59
f 13/50/48 172/18/18 173/20/20 15/62/58
f 11/49/47 171/16/16 172/18/18 13/50/48
f 9/89/85 170/14/14 171/16/16 11/49/47
f 7/65/61 169/12/12 170/14/14 9/89/85
f 5/64/60 168/10/10 169/12/12 7/65/61
f 3/58/54 167/8/8 168/10/10 5/64/60
f 1/57/53 166/5/5 167/8/8 3/58/54
f 120/141/130 81/210/3 129/135/125 178/134/124
f 77/142/128 120/141/130 178/134/124 126/229/166
f 118/137/127 79/212/129 127/226/167 179/214/164
f 83/138/2 118/137/127 179/214/164 125/213/163
