# Blender v2.91.2 OBJ File: ''
# www.blender.org
mtllib mbs.mtl
o Cube_Cube.001
v -1.000000 0.000000 -3.892239
v -1.000000 10.000000 -3.892239
v -1.000000 0.000000 -6.892239
v -1.000000 10.000000 -6.892239
v 1.000000 0.000000 -3.892239
v 1.000000 10.000000 -3.892239
v 1.000000 0.000000 -6.892239
v 1.000000 10.000000 -6.892239
vt 0.375000 0.000000
vt 0.625000 0.000000
vt 0.625000 0.250000
vt 0.375000 0.250000
vt 0.625000 0.500000
vt 0.375000 0.500000
vt 0.625000 0.750000
vt 0.375000 0.750000
vt 0.625000 1.000000
vt 0.375000 1.000000
vt 0.125000 0.500000
vt 0.125000 0.750000
vt 0.875000 0.500000
vt 0.875000 0.750000
vn -1.0000 0.0000 0.0000
vn 0.0000 0.0000 -1.0000
vn 1.0000 0.0000 0.0000
vn 0.0000 0.0000 1.0000
vn 0.0000 -1.0000 0.0000
vn 0.0000 1.0000 0.0000
usemtl Material.002
s off
f 1/1/1 2/2/1 4/3/1 3/4/1
f 3/4/2 4/3/2 8/5/2 7/6/2
f 7/6/3 8/5/3 6/7/3 5/8/3
f 5/8/4 6/7/4 2/9/4 1/10/4
f 3/11/5 7/6/5 5/8/5 1/12/5
f 8/5/6 4/13/6 2/14/6 6/7/6
o Cube.001_Cube.002
v -1.000000 0.000000 7.248386
v -1.000000 10.000000 7.248386
v -1.000000 0.000000 4.248386
v -1.000000 10.000000 4.248386
v 1.000000 0.000000 7.248386
v 1.000000 10.000000 7.248386
v 1.000000 0.000000 4.248386
v 1.000000 10.000000 4.248386
vt 0.375000 0.000000
vt 0.625000 0.000000
vt 0.625000 0.250000
vt 0.375000 0.250000
vt 0.625000 0.500000
vt 0.375000 0.500000
vt 0.625000 0.750000
vt 0.375000 0.750000
vt 0.625000 1.000000
vt 0.375000 1.000000
vt 0.125000 0.500000
vt 0.125000 0.750000
vt 0.875000 0.500000
vt 0.875000 0.750000
vn -1.0000 0.0000 0.0000
vn 0.0000 0.0000 -1.0000
vn 1.0000 0.0000 0.0000
vn 0.0000 0.0000 1.0000
vn 0.0000 -1.0000 0.0000
vn 0.0000 1.0000 0.0000
usemtl Material.002
s off
f 9/15/7 10/16/7 12/17/7 11/18/7
f 11/18/8 12/17/8 16/19/8 15/20/8
f 15/20/9 16/19/9 14/21/9 13/22/9
f 13/22/10 14/21/10 10/23/10 9/24/10
f 11/25/11 15/20/11 13/22/11 9/26/11
f 16/19/12 12/27/12 10/28/12 14/21/12
o Cube.002_Cube.003
v -1.000000 0.000000 1.729508
v -1.000000 10.000000 1.729508
v -1.000000 0.000000 -1.270492
v -1.000000 10.000000 -1.270492
v 1.000000 0.000000 1.729508
v 1.000000 10.000000 1.729508
v 1.000000 0.000000 -1.270492
v 1.000000 10.000000 -1.270492
vt 0.375000 0.000000
vt 0.625000 0.000000
vt 0.625000 0.250000
vt 0.375000 0.250000
vt 0.625000 0.500000
vt 0.375000 0.500000
vt 0.625000 0.750000
vt 0.375000 0.750000
vt 0.625000 1.000000
vt 0.375000 1.000000
vt 0.125000 0.500000
vt 0.125000 0.750000
vt 0.875000 0.500000
vt 0.875000 0.750000
vn -1.0000 0.0000 0.0000
vn 0.0000 0.0000 -1.0000
vn 1.0000 0.0000 0.0000
vn 0.0000 0.0000 1.0000
vn 0.0000 -1.0000 0.0000
vn 0.0000 1.0000 0.0000
usemtl Material.002
s off
f 17/29/13 18/30/13 20/31/13 19/32/13
f 19/32/14 20/31/14 24/33/14 23/34/14
f 23/34/15 24/33/15 22/35/15 21/36/15
f 21/36/16 22/35/16 18/37/16 17/38/16
f 19/39/17 23/34/17 21/36/17 17/40/17
f 24/33/18 20/41/18 18/42/18 22/35/18
o boat.001
v -0.626697 9.999999 7.090051
v 0.000000 10.703798 9.142172
v -1.044494 10.703798 8.756748
v 0.000000 9.999999 7.321285
v 1.432163 10.000001 -7.549159
v -1.432163 9.999999 6.238147
v -1.432163 10.000001 -7.549159
v -2.386936 10.703798 7.336925
v -2.386936 10.703801 -7.549159
v -3.140699 11.642201 -7.549159
v -3.140699 11.642199 8.008341
v -1.374333 11.642199 9.876538
v 0.000000 11.642199 10.383665
v 1.044494 10.703798 8.756748
v 1.374333 11.642199 9.876538
v 2.386936 10.703798 7.336925
v 3.140716 11.642199 8.008341
v 3.140716 11.642201 -7.549159
v 2.386936 10.703801 -7.549159
v 1.432163 9.999999 6.238147
v 0.626697 9.999999 7.090051
v 2.983670 12.345999 7.868464
v 2.983670 12.346001 -7.549159
v 1.973836 11.876801 -7.549159
v -1.973836 11.876801 -7.549159
v -2.983670 12.346001 -7.549159
v -2.983670 12.345999 7.868464
v -1.305617 12.345999 9.643248
v 0.000000 12.345999 10.125027
v 1.305617 12.345999 9.643248
v 2.631770 12.345999 7.683402
v 1.056120 12.345999 9.349878
v 0.000000 12.345999 9.739586
v -1.056120 12.345999 9.349878
v -2.631770 12.345999 7.683402
v -2.631770 12.346001 -7.197259
v -1.973836 12.346001 -7.549159
v -1.973836 12.346001 -7.197259
v -2.631770 11.876801 -7.197259
v -1.973836 11.876801 -7.197259
v -1.927970 11.876799 7.836403
v -2.631770 11.876800 1.445405
v -2.631770 11.876799 5.467708
v -2.631770 11.876799 7.683402
v -1.056120 11.876799 9.349878
v 0.000000 11.876799 9.739586
v 1.056120 11.876799 9.349878
v 2.631770 11.876799 7.683402
v 2.631770 12.346001 -7.197259
v 2.631770 11.876800 4.529307
v 2.631770 11.876800 1.445405
v 2.631770 11.876801 -7.197259
v 1.973836 11.876801 -7.197259
v 1.973836 12.346001 -7.197259
v 1.973836 12.346001 -7.549159
v -1.927970 11.876800 0.932143
v -1.927970 12.463299 6.510403
v -1.927970 12.463299 7.836403
v 1.927970 12.463299 7.836403
v 1.927970 11.876799 7.836403
v 1.927970 11.876800 0.932143
v -1.927970 13.635127 0.932143
v 1.927970 13.635127 0.932143
v 2.162570 13.635127 0.728143
v -2.162570 13.635127 0.728143
v -2.162570 13.635126 7.918003
v -1.927970 13.635126 6.510403
v -1.757970 13.635126 7.683403
v 2.162570 13.635126 7.918003
v 1.757970 13.635126 7.683403
v -1.757970 12.463299 7.683402
v 1.757970 12.463299 7.683402
v -1.757970 12.463299 6.510403
v -1.757970 13.635126 6.510403
v 1.757970 13.635126 6.510403
v 1.927970 13.635126 6.510403
v 1.757970 12.463299 6.510403
v 1.927970 12.463299 6.510403
v 2.162570 14.104326 7.918003
v 2.162570 14.104326 0.962743
v 2.162570 13.869727 0.728143
v -2.162570 13.869727 0.728143
v -2.162570 14.104326 0.962743
v -2.162570 14.104326 7.918003
vt 48.481300 160.244003
vt 78.549698 203.031998
vt 52.766102 203.031998
vt 63.951401 160.244003
vt 14.513600 -179.378006
vt -33.167301 159.649002
vt 0.000000 -184.733994
vt 33.167301 -159.649002
vt 33.167301 159.649002
vt 185.095001 54.167400
vt -159.649002 26.697701
vt 159.649002 26.697701
vt -159.649002 54.167400
vt 185.095001 47.325100
vt -159.649002 75.200203
vt -159.649002 47.325100
vt 200.645004 75.200203
vt 96.518204 133.632004
vt 155.365997 165.542999
vt 95.823898 165.542999
vt 141.770004 133.632004
vt 93.219299 120.334000
vt 141.770004 157.632996
vt 96.518204 157.632996
vt 120.371002 120.334000
vt 52.766102 175.992004
vt 88.502998 210.630997
vt 54.577301 210.630997
vt 78.549698 175.992004
vt -52.766102 175.992004
vt -88.502998 210.630997
vt -78.549698 175.992004
vt -54.577301 210.630997
vt -96.518204 133.632004
vt -155.365997 165.542999
vt -141.770004 133.632004
vt -95.823898 165.542999
vt -185.095001 47.325100
vt 159.649002 75.200203
vt -200.645004 75.200203
vt 159.649002 47.325100
vt -159.649002 26.697701
vt 159.649002 54.167400
vt -185.095001 54.167400
vt 159.649002 26.697701
vt -14.513600 -179.378006
vt -33.167301 -159.649002
vt -48.481300 160.244003
vt -78.549698 203.031998
vt -63.951401 160.244003
vt -52.766102 203.031998
vt -93.219299 120.334000
vt -141.770004 157.632996
vt -120.371002 120.334000
vt -96.518204 157.632996
vt -33.167301 0.000000
vt 55.278801 16.299200
vt -55.278801 16.299200
vt 33.167301 0.000000
vt 72.735199 38.031502
vt -72.735199 38.031502
vt -40.712601 -165.953995
vt -44.649700 -36.768200
vt -44.649700 -165.953995
vt 44.649700 -36.768200
vt 40.712601 -165.953995
vt 40.712601 -193.119995
vt -40.712601 -193.119995
vt 44.649700 -165.953995
vt -72.735199 159.649002
vt 72.735199 -200.645004
vt 72.735199 159.649002
vt 31.827999 -243.910004
vt 0.000000 -255.654999
vt -31.827999 -243.910004
vt -72.735199 -200.645004
vt -60.948898 151.500000
vt -44.649700 -196.662994
vt -45.711700 151.500000
vt -60.948898 -48.654800
vt -60.948898 -141.807007
vt -60.948898 -193.119995
vt -24.458500 -231.712997
vt -44.649700 -36.768200
vt 45.711700 151.500000
vt 196.662994 43.464600
vt 165.953995 57.047199
vt 36.768200 43.464600
vt 196.662994 57.047199
vt -44.649700 43.464600
vt 44.649700 57.047199
vt -44.649700 57.047199
vt 44.649700 43.464600
vt 44.649700 -196.662994
vt -0.000000 -240.738007
vt 24.458500 -231.712997
vt 60.948898 -193.119995
vt 44.649700 -36.768200
vt 60.948898 151.500000
vt 60.948898 -48.654800
vt 60.948898 -120.073997
vt 44.649700 84.185600
vt -44.649700 43.464600
vt 44.649700 43.464600
vt -44.649700 84.185600
vt -40.712601 -193.119995
vt 44.649700 -196.662994
vt 40.712601 -193.119995
vt -44.649700 -196.662994
vt -44.649700 -165.953995
vt -40.712601 -165.953995
vt -40.712601 84.185600
vt -44.649700 57.047199
vt -40.712601 57.047199
vt -44.649700 84.185600
vt 40.712601 57.047199
vt 44.649700 84.185600
vt 40.712601 84.185600
vt 44.649700 57.047199
vt 40.712601 -165.953995
vt 44.649700 -165.953995
vt -196.662994 57.047199
vt -36.768200 43.464600
vt -165.953995 57.047199
vt -196.662994 43.464600
vt -165.953995 84.185600
vt -36.768200 84.185600
vt 36.768200 84.185600
vt 165.953995 84.185600
vt 159.649002 21.279200
vt -197.404999 37.979198
vt -200.645004 21.279200
vt 159.649002 37.979198
vt -45.711700 43.464600
vt -69.098503 54.330700
vt 45.711700 43.464600
vt 69.098503 54.330700
vt -159.649002 21.279200
vt 197.404999 37.979198
vt -159.649002 37.979198
vt 200.645004 21.279200
vt 95.823898 -18.134600
vt 152.533997 -1.123880
vt 95.968498 -1.123880
vt 155.365997 -18.134600
vt 54.577301 -42.223000
vt 86.429398 -24.982300
vt 54.200001 -24.982300
vt 88.502998 -42.223000
vt -88.502998 -42.223000
vt -54.200001 -24.982300
vt -86.429398 -24.982300
vt -54.577301 -42.223000
vt -95.823898 -18.134600
vt -152.533997 -1.123880
vt -155.365997 -18.134600
vt -95.968498 -1.123880
vt 60.948898 -193.119995
vt 30.236601 -238.507996
vt 69.098503 -197.404999
vt 24.458500 -231.712997
vt -0.000000 -240.738007
vt -0.000000 -249.664993
vt -24.458500 -231.712997
vt -30.236601 -238.507996
vt -60.948898 -193.119995
vt -69.098503 -197.404999
vt -69.098503 159.649002
vt -60.948898 151.500000
vt -45.711700 159.649002
vt -45.711700 151.500000
vt -60.948898 43.464600
vt -45.711700 54.330700
vt -60.948898 54.330700
vt -45.711700 43.464600
vt -98.453201 43.464600
vt -151.567001 54.330700
vt -151.567001 43.464600
vt -98.453201 54.330700
vt -141.807007 43.464600
vt -193.119995 54.330700
vt -193.119995 43.464600
vt 151.500000 54.330700
vt -48.654800 43.464600
vt 151.500000 43.464600
vt -57.268700 54.330700
vt -83.339302 43.464600
vt -57.268700 43.464600
vt -83.339302 54.330700
vt 83.339302 54.330700
vt 57.268700 43.464600
vt 83.339302 43.464600
vt 57.268700 54.330700
vt 98.453201 54.330700
vt 151.567001 43.464600
vt 151.567001 54.330700
vt 98.453201 43.464600
vt -151.500000 54.330700
vt 193.119995 43.464600
vt 193.119995 54.330700
vt 120.073997 43.464600
vt 48.654800 43.464600
vt -151.500000 43.464600
vt 60.948898 54.330700
vt 45.711700 43.464600
vt 60.948898 43.464600
vt 45.711700 54.330700
vt 60.948898 151.500000
vt 45.711700 159.649002
vt 45.711700 151.500000
vt 69.098503 159.649002
vt -45.711700 54.330700
vt -151.500000 43.464600
vt -159.649002 54.330700
vt -159.649002 43.464600
vt -151.500000 54.330700
vt -45.711700 159.649002
vt 45.711700 159.649002
vt 159.649002 43.464600
vt 151.500000 54.330700
vt 151.500000 43.464600
vt 159.649002 54.330700
vt 45.711700 54.330700
vt 44.649700 -36.768200
vt -50.082699 -32.043800
vt -44.649700 -36.768200
vt 50.082699 -32.043800
vt 50.082699 -198.552994
vt 44.649700 -165.953995
vt 40.712601 -193.119995
vt -50.082699 -198.552994
vt -40.712601 -193.119995
vt 40.712601 -165.953995
vt -44.649700 -165.953995
vt -40.712601 -165.953995
vt -32.043800 84.185600
vt -198.552994 95.051697
vt -198.552994 84.185600
vt -37.476799 95.051697
vt -32.043800 89.618599
vt -50.082699 84.185600
vt 50.082699 89.618599
vt -50.082699 89.618599
vt 50.082699 84.185600
vt 32.043800 84.185600
vt 37.476799 95.051697
vt 32.043800 89.618599
vt 198.552994 84.185600
vt 198.552994 95.051697
vt -50.082699 84.185600
vt 50.082699 95.051697
vt -50.082699 95.051697
vt 50.082699 84.185600
vt 50.082699 -198.552994
vt -50.082699 -37.476799
vt -50.082699 -198.552994
vt 50.082699 -37.476799
vt -50.082699 93.711800
vt 50.082699 86.028297
vt 50.082699 93.711800
vt -50.082699 86.028297
vt -40.712601 57.047199
vt 40.712601 84.185600
vt -40.712601 84.185600
vt 40.712601 57.047199
vt 165.953995 84.185600
vt 193.119995 57.047199
vt 193.119995 84.185600
vt 165.953995 57.047199
vt -165.953995 57.047199
vt -193.119995 84.185600
vt -193.119995 57.047199
vt -165.953995 84.185600
vn -0.1319 -0.9246 0.3574
vn 0.0000 -1.0000 -0.0000
vn -0.5934 -0.8049 -0.0000
vn -0.7796 -0.6262 -0.0000
vn -0.4949 -0.7323 0.4679
vn -0.3175 -0.8995 0.3002
vn -0.2172 -0.7787 0.5886
vn 0.2172 -0.7787 0.5886
vn 0.4949 -0.7323 0.4679
vn 0.7796 -0.6262 -0.0000
vn 0.5934 -0.8049 -0.0000
vn 0.1319 -0.9246 0.3574
vn 0.3175 -0.8995 0.3002
vn 0.0000 0.0000 -1.0000
vn 0.0000 1.0000 0.0000
vn -1.0000 0.0000 0.0000
vn 0.0000 0.0000 1.0000
vn 1.0000 0.0000 0.0000
vn 0.8390 0.5441 0.0000
vn 0.9760 0.2178 0.0000
vn -0.9760 0.2178 0.0000
vn -0.6962 0.2862 0.6583
vn -0.3273 0.3259 0.8869
vn 0.3273 0.3259 0.8869
vn 0.6962 0.2862 0.6583
vn 0.7266 0.0000 -0.6870
vn 0.3462 0.0000 -0.9382
vn -0.3462 0.0000 -0.9382
vn -0.7266 0.0000 -0.6870
vn 0.0000 0.7071 -0.7071
usemtl Dark_metal.001
s 1
f 25/43/19 26/44/19 27/45/19
f 26/44/19 25/43/19 28/46/19
f 25/47/20 29/48/20 28/49/20
f 30/50/20 29/48/20 25/47/20
f 29/48/20 30/50/20 31/51/20
f 32/52/21 31/53/21 30/54/21
f 31/53/21 32/52/21 33/55/21
f 32/56/22 34/57/22 33/58/22
f 34/57/22 32/56/22 35/59/22
f 32/60/23 36/61/23 35/62/23
f 36/61/23 32/60/23 27/63/23
f 30/64/24 27/65/24 32/66/24
f 27/65/24 30/64/24 25/67/24
f 27/68/25 37/69/25 36/70/25
f 37/69/25 27/68/25 26/71/25
f 38/72/26 37/73/26 26/74/26
f 37/73/26 38/72/26 39/75/26
f 40/76/27 39/77/27 38/78/27
f 39/77/27 40/76/27 41/79/27
f 40/80/28 42/81/28 41/82/28
f 42/81/28 40/80/28 43/83/28
f 44/84/29 43/85/29 40/86/29
f 43/85/29 44/84/29 29/87/29
f 45/88/20 29/48/20 44/89/20
f 28/49/20 29/48/20 45/88/20
f 45/90/30 26/91/30 28/92/30
f 26/91/30 45/90/30 38/93/30
f 44/94/31 38/95/31 45/96/31
f 38/95/31 44/94/31 40/97/31
f 29/98/32 33/99/32 43/100/32
f 33/99/32 29/98/32 31/101/32
f 34/102/32 43/100/32 33/99/32
f 43/100/32 34/102/32 42/103/32
f 98/104/33 86/105/33 91/106/33
f 86/105/33 98/104/33 87/107/33
f 87/107/33 98/104/33 99/108/33
f 99/108/33 98/104/33 94/109/33
f 94/109/33 98/104/33 92/110/33
f 87/107/33 99/108/33 100/111/33
usemtl Grey_metal_1.001
f 42/112/20 35/113/20 34/114/20
f 35/113/20 42/112/20 36/115/20
f 36/115/20 42/112/20 37/116/20
f 37/116/20 42/112/20 39/117/20
f 39/117/20 42/112/20 41/118/20
f 63/119/33 65/120/33 64/121/33
f 66/122/33 65/120/33 63/119/33
f 67/123/33 65/120/33 66/122/33
f 68/124/33 65/120/33 67/123/33
f 65/120/33 68/124/33 69/125/33
f 64/121/33 80/126/33 77/127/33
f 80/126/33 64/121/33 65/120/33
f 65/128/34 81/129/34 80/130/34
f 81/129/34 65/128/34 82/131/34
f 65/132/35 83/133/35 82/134/35
f 83/133/35 65/132/35 84/135/35
f 65/120/33 69/125/33 84/136/33
f 84/136/33 69/125/33 70/137/33
f 84/136/33 70/137/33 71/138/33
f 84/136/33 71/138/33 72/139/33
f 84/136/33 72/139/33 85/140/33
f 85/140/33 72/139/33 77/127/33
f 77/127/33 72/139/33 76/141/33
f 76/141/33 72/139/33 75/142/36
f 75/142/36 72/139/33 74/143/37
f 77/127/33 80/126/33 85/140/33
f 86/144/32 85/145/32 80/146/32
f 85/145/32 86/144/32 87/147/32
f 95/148/33 83/149/33 96/150/33
f 95/148/33 82/151/33 83/149/33
f 82/151/33 95/148/33 81/152/33
f 97/153/33 81/152/33 95/148/33
f 98/154/35 81/155/35 97/156/35
f 81/155/35 98/154/35 91/157/35
f 101/158/35 100/159/35 99/160/35
f 100/159/35 101/158/35 102/161/35
f 101/162/33 83/149/33 102/163/33
f 96/150/33 83/149/33 101/162/33
f 83/164/36 85/165/36 102/166/36
f 85/165/36 83/164/36 84/167/36
f 102/166/36 85/165/36 100/168/36
f 100/168/36 85/165/36 87/169/36
f 86/170/34 81/129/34 91/171/34
f 80/130/34 81/129/34 86/170/34
usemtl Red_metal.001
f 42/172/38 46/173/38 41/174/38
f 46/173/38 42/172/38 47/175/38
f 42/103/32 48/176/32 47/177/32
f 48/176/32 42/103/32 49/178/32
f 34/102/32 49/178/32 42/103/32
f 49/178/32 34/102/32 50/179/32
f 34/180/39 51/181/39 50/182/39
f 51/181/39 34/180/39 35/183/39
f 35/184/40 52/185/40 51/186/40
f 52/185/40 35/184/40 36/187/40
f 36/188/41 53/189/41 52/190/41
f 53/189/41 36/188/41 37/191/41
f 37/192/42 54/193/42 53/194/42
f 54/193/42 37/192/42 39/195/42
f 41/196/43 54/197/43 39/198/43
f 54/197/43 41/196/43 46/199/43
f 55/200/33 54/201/33 46/202/33
f 56/203/33 54/201/33 55/200/33
f 57/204/33 54/201/33 56/203/33
f 57/204/33 53/205/33 54/201/33
f 58/206/33 53/205/33 57/204/33
f 58/206/33 52/207/33 53/205/33
f 59/208/33 52/207/33 58/206/33
f 59/208/33 51/209/33 52/207/33
f 51/209/33 59/208/33 50/210/33
f 60/211/33 50/210/33 59/208/33
f 50/210/33 60/211/33 61/212/33
f 61/212/33 60/211/33 62/213/33
f 63/214/35 62/215/35 60/216/35
f 62/215/35 63/214/35 64/217/35
f 68/218/44 58/219/44 69/220/44
f 58/219/44 68/218/44 59/221/44
f 67/222/36 59/223/36 68/224/36
f 59/223/36 67/222/36 60/225/36
f 60/225/36 67/222/36 66/226/36
f 60/225/36 66/226/36 63/227/36
f 58/228/45 70/229/45 69/230/45
f 70/229/45 58/228/45 57/231/45
f 57/232/46 71/233/46 70/234/46
f 71/233/46 57/232/46 56/235/46
f 55/236/47 71/237/47 56/238/47
f 71/237/47 55/236/47 72/239/47
f 73/240/34 72/241/34 55/242/34
f 72/241/34 73/240/34 74/243/34
f 74/243/34 73/240/34 75/244/34
f 75/244/34 73/240/34 76/245/34
f 73/246/35 77/247/35 76/248/35
f 77/247/35 73/246/35 78/249/35
f 73/250/33 79/251/33 78/252/33
f 79/251/33 73/250/33 47/253/33
f 47/253/33 73/250/33 55/200/33
f 47/253/33 55/200/33 46/202/33
f 47/177/32 48/176/32 79/254/32
f 77/255/34 79/256/34 48/257/34
f 79/256/34 77/255/34 78/258/34
f 49/259/33 77/127/33 48/260/33
f 77/127/33 49/259/33 64/121/33
f 49/261/36 62/262/36 64/263/36
f 62/262/36 49/261/36 61/264/36
f 49/178/32 50/179/32 61/265/32
f 86/266/20 88/267/20 87/268/20
f 86/266/20 89/269/20 88/267/20
f 89/269/20 86/266/20 90/270/20
f 91/271/20 90/270/20 86/266/20
f 92/272/20 90/270/20 91/271/20
f 90/270/20 92/272/20 93/273/20
f 93/273/20 92/272/20 94/274/20
f 92/272/20 91/271/20 98/275/20
f 100/276/20 94/274/20 99/277/20
f 93/273/20 94/274/20 100/276/20
f 93/273/20 100/276/20 88/267/20
f 87/268/20 88/267/20 100/276/20
f 88/278/36 103/279/36 93/280/36
f 103/279/36 88/278/36 104/281/36
f 104/281/36 88/278/36 105/282/36
f 88/283/32 106/284/32 105/285/32
f 106/284/32 88/283/32 89/286/32
f 89/287/34 107/288/34 106/289/34
f 90/290/34 107/288/34 89/287/34
f 107/288/34 90/290/34 108/291/34
f 90/292/35 103/293/35 108/294/35
f 103/293/35 90/292/35 93/295/35
f 103/296/33 107/297/33 108/298/33
f 107/297/33 103/296/33 104/299/33
f 104/300/48 106/301/48 107/302/48
f 106/301/48 104/300/48 105/303/48
usemtl Glass.001
f 95/304/35 94/305/35 92/306/35
f 94/305/35 95/304/35 96/307/35
f 98/308/34 95/309/34 92/310/34
f 95/309/34 98/308/34 97/311/34
f 101/312/36 94/313/36 96/314/36
f 94/313/36 101/312/36 99/315/36
