# Blender v2.91.2 OBJ File: ''
# www.blender.org
mtllib road_straight.mtl
o road_straight
v 0.500000 0.020000 -0.400000
v -0.500000 0.010000 -0.400000
v 0.500000 0.010000 -0.400000
v -0.500000 0.020000 -0.400000
v -0.500000 0.020000 -0.500000
v 0.500000 0.000000 -0.500000
v -0.500000 0.000000 -0.500000
v 0.500000 0.020000 -0.500000
v -0.500000 0.020000 0.400000
v 0.500000 0.010000 0.400000
v -0.500000 0.010000 0.400000
v 0.500000 0.020000 0.400000
v -0.500000 -0.000000 0.500000
v 0.500000 -0.000000 0.500000
v 0.500000 0.020000 0.500000
v -0.500000 0.020000 0.500000
v 0.500000 0.010000 0.300000
v 0.500000 0.010000 0.010000
v 0.500000 0.010000 -0.010000
v 0.500000 0.010000 -0.300000
v -0.500000 0.010000 -0.300000
v -0.500000 0.010000 -0.010000
v -0.500000 0.010000 0.010000
v -0.500000 0.010000 0.300000
vt 19.685040 0.787402
vt -19.685040 0.393701
vt 19.685040 0.393701
vt -19.685040 0.787402
vt 19.685040 0.787402
vt -19.685040 0.000000
vt 19.685040 0.000000
vt -19.685040 0.787402
vt 19.685040 0.787402
vt -19.685040 0.393701
vt 19.685040 0.393701
vt -19.685040 0.787402
vt -19.685040 19.685040
vt 19.685040 -19.685040
vt 19.685040 19.685040
vt -19.685040 -19.685040
vt 19.685040 -19.685040
vt -19.685040 -15.748030
vt -19.685040 -19.685040
vt 19.685040 -15.748030
vt 19.685040 0.787402
vt -19.685040 0.000000
vt 19.685040 0.000000
vt -19.685040 0.787402
vt 19.685040 15.748030
vt -19.685040 19.685040
vt -19.685040 15.748030
vt 19.685040 19.685040
vt -19.685040 0.787402
vt -15.748030 0.393701
vt -15.748030 0.787402
vt -19.685040 0.000000
vt -11.811020 0.393701
vt -0.393701 0.393701
vt 0.393701 0.393701
vt 11.811020 0.393701
vt 15.748030 0.393701
vt 19.685040 0.000000
vt 15.748030 0.787402
vt 19.685040 0.787402
vt -19.685040 -0.000000
vt -15.748030 0.393701
vt -19.685040 0.787402
vt 19.685040 -0.000000
vt -11.811020 0.393701
vt -0.393701 0.393701
vt 0.393701 0.393701
vt 11.811020 0.393701
vt 15.748030 0.393701
vt 15.748030 0.787402
vt 19.685040 0.787402
vt -15.748030 0.787402
vt -19.685040 0.393701
vt 19.685040 11.811020
vt -19.685040 11.811020
vt 19.685040 0.393701
vt 19.685040 -11.811020
vt -19.685040 -0.393701
vt -19.685040 -11.811020
vt 19.685040 -0.393701
vt 19.685040 -15.748030
vt -19.685040 -15.748030
vt -19.685040 15.748030
vt 19.685040 15.748030
vn 0.0000 0.0000 1.0000
vn 0.0000 0.0000 -1.0000
vn 0.0000 -1.0000 -0.0000
vn 0.0000 1.0000 0.0000
vn 1.0000 0.0000 0.0000
vn -1.0000 0.0000 0.0000
vn -1.0000 -0.0001 0.0000
g road_straight_road_straight_pavement.002
usemtl pavement.002
s 1
f 1/1/1 2/2/1 3/3/1
f 2/2/1 1/1/1 4/4/1
f 5/5/2 6/6/2 7/7/2
f 6/6/2 5/5/2 8/8/2
f 9/9/2 10/10/2 11/11/2
f 10/10/2 9/9/2 12/12/2
f 13/13/3 6/14/3 14/15/3
f 6/14/3 13/13/3 7/16/3
f 5/17/4 1/18/4 8/19/4
f 1/18/4 5/17/4 4/20/4
f 15/21/1 13/22/1 14/23/1
f 13/22/1 15/21/1 16/24/1
f 9/25/4 15/26/4 12/27/4
f 15/26/4 9/25/4 16/28/4
g road_straight_road_straight_asphalt.001
usemtl asphalt.001
f 15/29/5 10/30/5 12/31/5
f 14/32/5 10/30/5 15/29/5
f 14/32/5 17/33/5 10/30/5
f 14/32/5 18/34/5 17/33/5
f 14/32/5 19/35/5 18/34/5
f 14/32/5 20/36/5 19/35/5
f 14/32/5 3/37/5 20/36/5
f 6/38/5 3/37/5 14/32/5
f 6/38/5 1/39/5 3/37/5
f 1/39/5 6/38/5 8/40/5
f 7/41/6 2/42/6 5/43/6
f 2/42/6 7/41/6 13/44/6
f 2/42/6 13/44/6 21/45/7
f 21/45/7 13/44/6 22/46/6
f 22/46/6 13/44/6 23/47/6
f 23/47/6 13/44/6 24/48/6
f 24/48/6 13/44/6 11/49/6
f 11/49/6 13/44/6 9/50/6
f 9/50/6 13/44/6 16/51/6
f 4/52/6 5/43/6 2/42/6
f 18/53/4 24/54/4 17/55/4
f 24/54/4 18/53/4 23/56/4
f 21/57/4 19/58/4 20/59/4
f 19/58/4 21/57/4 22/60/4
g road_straight_road_straight_asphaltEdge.001
usemtl asphaltEdge.001
f 2/61/4 20/59/4 3/62/4
f 20/59/4 2/61/4 21/57/4
f 24/54/4 10/63/4 17/55/4
f 10/63/4 24/54/4 11/64/4
g road_straight_road_straight_line.001
usemtl line.001
f 22/60/4 18/53/4 19/58/4
f 18/53/4 22/60/4 23/56/4
o road_straightBarrier
v 0.500000 0.080000 -0.470000
v -0.500000 0.080000 -0.500000
v -0.500000 0.080000 -0.470000
v 0.500000 0.080000 -0.500000
v -0.500000 -0.000000 0.500000
v 0.500000 0.000000 0.450000
v 0.500000 0.000000 0.500000
v -0.500000 -0.000000 0.450000
v 0.500000 0.080000 0.470000
v -0.500000 0.080000 0.470000
v -0.500000 -0.000000 -0.500000
v 0.500000 0.000000 -0.450000
v -0.500000 -0.000000 -0.450000
v 0.500000 0.000000 -0.500000
v -0.500000 0.080000 0.500000
v 0.500000 0.080000 0.500000
vt 18.503941 -19.685040
vt 19.685040 19.685040
vt 18.503941 19.685040
vt 19.685040 -19.685040
vt 19.685040 19.685040
vt 17.716539 -19.685040
vt 19.685040 -19.685040
vt 17.716539 19.685040
vt 19.685040 4.296891
vt -19.685040 7.543431
vt -19.685040 4.296891
vt 19.685040 7.543431
vt -19.685040 19.685040
vt -17.716539 -19.685040
vt -17.716539 19.685040
vt -19.685040 -19.685040
vt 19.685040 3.149606
vt 17.716539 0.000000
vt 19.685040 0.000000
vt 18.503941 3.149606
vt -19.685040 3.149606
vt 19.685040 0.000000
vt 19.685040 3.149606
vt -19.685040 0.000000
vt -18.503941 3.149606
vt -19.685040 -0.000000
vt -17.716539 -0.000000
vt -19.685040 3.149606
vt 19.685040 7.543431
vt -19.685040 4.296891
vt 19.685040 4.296891
vt -19.685040 7.543431
vt 19.685040 3.149606
vt 17.716539 0.000000
vt 19.685040 0.000000
vt 18.503941 3.149606
vt -18.503941 -19.685040
vt -19.685040 19.685040
vt -19.685040 -19.685040
vt -18.503941 19.685040
vt 19.685040 0.000000
vt -19.685040 3.149606
vt -19.685040 0.000000
vt 19.685040 3.149606
vt -18.503941 3.149606
vt -19.685040 0.000000
vt -17.716539 0.000000
vt -19.685040 3.149606
vn -0.0000 1.0000 0.0000
vn 0.0000 -1.0000 0.0000
vn -0.0000 0.2425 -0.9701
vn -1.0000 0.0000 0.0000
vn 0.0000 0.0000 1.0000
vn 1.0000 0.0000 0.0000
vn 0.0000 0.2425 0.9701
vn -0.0000 -0.0000 -1.0000
g road_straightBarrier_road_straightBarrier_pavement.003
usemtl pavement.003
s 1
f 25/65/8 26/66/8 27/67/8
f 26/66/8 25/65/8 28/68/8
f 29/69/9 30/70/9 31/71/9
f 30/70/9 29/69/9 32/72/9
f 32/73/10 33/74/10 30/75/10
f 33/74/10 32/73/10 34/76/10
f 35/77/9 36/78/9 37/79/9
f 36/78/9 35/77/9 38/80/9
f 39/81/11 32/82/11 29/83/11
f 32/82/11 39/81/11 34/84/11
f 39/85/12 31/86/12 40/87/12
f 31/86/12 39/85/12 29/88/12
f 33/89/13 31/90/13 30/91/13
f 31/90/13 33/89/13 40/92/13
f 25/93/14 37/94/14 36/95/14
f 37/94/14 25/93/14 27/96/14
f 28/97/13 36/98/13 38/99/13
f 36/98/13 28/97/13 25/100/13
f 33/101/8 39/102/8 40/103/8
f 39/102/8 33/101/8 34/104/8
f 35/105/15 28/106/15 38/107/15
f 28/106/15 35/105/15 26/108/15
f 27/109/11 35/110/11 37/111/11
f 35/110/11 27/109/11 26/112/11
